<?xml version="1.0" encoding="UTF-8" standalone="no"?>
<svg
   xmlns:dc="http://purl.org/dc/elements/1.1/"
   xmlns:cc="http://creativecommons.org/ns#"
   xmlns:rdf="http://www.w3.org/1999/02/22-rdf-syntax-ns#"
   xmlns:svg="http://www.w3.org/2000/svg"
   xmlns="http://www.w3.org/2000/svg"
   viewBox="0 0 1151.84 1051.8533"
   height="1051.8533"
   width="1151.84"
   xml:space="preserve"
   id="svg2"
   version="1.1"><metadata
     id="metadata8"><rdf:RDF><cc:Work
         rdf:about=""><dc:format>image/svg+xml</dc:format><dc:type
           rdf:resource="http://purl.org/dc/dcmitype/StillImage" /></cc:Work></rdf:RDF></metadata><defs
     id="defs6"><clipPath
       id="clipPath18"
       clipPathUnits="userSpaceOnUse"><path
         id="path16"
         d="M 0,788.89 H 863.88 V 0 H 0 Z" /></clipPath></defs><g
     transform="matrix(1.3333333,0,0,-1.3333333,0,1051.8533)"
     id="g10"><g
       id="g12"><g
         clip-path="url(#clipPath18)"
         id="g14"><g
           transform="translate(684.419,67.5717)"
           id="g20"><path
             id="path22"
             style="fill:#fefefe;fill-opacity:1;fill-rule:nonzero;stroke:none"
             d="M 0,0 C -5.292,4.4 -11.427,-4.996 -5.686,-7.956 0.646,-11.22 3.807,-3.166 0,0 m 39.044,1.132 c -5.41,-5.876 -7.866,-0.579 -12.817,-2.084 -4.576,-1.39 2.467,-3.94 2.64,-4.236 0.731,-1.255 -3.679,-3.795 -4.95,-3.803 -2.84,-0.016 -1.592,2.532 -4.889,1.799 -3.175,-0.706 0.81,-3.932 1.781,-4.636 0.786,-0.57 -0.968,-1.174 1.919,-0.96 0.456,0.034 1.067,-0.093 1.44,0 2.37,-0.834 0.37,-1.924 3.119,-1.948 5.016,-0.042 6.028,4.23 8.071,6.597 1.083,1.255 4.13,0.044 1.766,3.031 0.159,-0.005 0.324,0.018 0.48,0 0.46,-0.052 1.013,0.083 1.44,0 0.093,-0.018 -0.086,-1.998 0.956,-0.957 1.007,1.007 -0.883,0.895 -0.956,0.957 -0.082,0.069 0.052,0.695 0,0.96 0.159,0.003 0.321,-0.01 0.479,0 0.981,0.062 1.312,-0.603 2.649,-0.051 1.438,0.595 2.619,2.739 3.628,4.377 0.557,0.903 0.726,1.989 0.477,3.02 l -1.475,6.094 c -0.119,0.951 -0.015,0.975 -0.48,1.92 -0.073,0.15 0.162,0.712 -0.075,0.883 -0.359,0.26 -0.963,0.02 -1.364,0.077 -0.233,0.033 -0.793,-0.665 -0.96,-0.72 -2.915,-0.957 -0.217,-7.679 -2.879,-10.32 m -9.851,17.981 c -4.192,7.215 -11.581,-4.246 -4.669,-5.846 3.768,-0.872 6.877,2.047 4.669,5.846 m -53.977,-0.821 c 0,1.887 -1.53,3.416 -3.416,3.416 -1.886,0 -3.416,-1.529 -3.416,-3.416 0,-1.887 1.53,-3.417 3.416,-3.417 1.886,0 3.416,1.53 3.416,3.417 m -26.31,4.523 c 0.735,-1.176 3.911,-0.196 3.277,1.578 -0.521,1.458 -5.004,1.185 -3.277,-1.578 m 47.179,6.381 c -4.345,7.305 -13.603,-2.591 -7.075,-6.482 4.561,-2.719 9.696,2.075 7.075,6.482 m -28.252,14.451 c -9.626,6.14 -13.047,-12.535 -1.471,-9.905 3.555,0.807 4.841,7.756 1.471,9.905 m 51.83,-0.587 c 3.261,9.377 -11.227,10.106 -8.902,0.194 0.602,-2.565 7.779,-3.422 8.902,-0.194 m 16.86,10.744 c -4.95,0.784 -6.501,-7.842 -1.018,-8.031 5.508,-0.19 4.917,7.414 1.018,8.031 M -7.866,52.121 c 1.674,-3.412 9.595,0.886 5.379,4.668 -3.441,3.088 -6.934,-1.499 -5.379,-4.668 m 49.309,5.171 c -0.168,-0.02 -0.353,0.041 -0.48,0 -2.048,-0.654 -2.561,-2.929 0,-3.36 7.731,-1.301 13.763,-6.66 10.545,-15.488 -1.59,-4.362 -7.64,0.589 -8.554,-2.616 -0.85,-2.978 6.679,-2.943 2.808,-7.816 -2.549,-0.399 -4.946,1.045 -6.239,-0.96 -0.534,-0.828 -0.403,-1.051 -0.479,-1.92 -0.005,-0.053 -0.809,-0.691 -0.478,-0.956 0.123,-0.098 1.039,0.037 1.437,-0.004 1.03,-1.732 5.787,-2.791 5.759,0 0.32,0 0.64,-0.001 0.959,0 1.846,0.007 2.044,1.016 1.92,-0.48 -0.102,-0.377 -0.089,-2.446 0,-2.88 0.347,-1.684 0.676,-0.677 0.96,-0.96 6.165,-6.163 10.766,5.996 3.359,6.24 -1.042,2.354 -1.735,-0.709 -2.64,2.88 -0.084,0.335 0.224,2.735 0.24,2.88 0.006,0.053 0.35,0.625 0.48,0.96 2.519,-0.143 -0.6,-4.728 1.917,-4.797 -1.124,3.811 1.579,4.339 2.899,6.563 0.333,0.561 -0.508,1.749 -0.484,1.841 0.099,0.392 0.307,-0.746 1.427,0.713 -0.976,-1.525 -0.927,1.549 -0.96,1.92 1.175,-0.005 1.503,-1.07 0.96,-1.92 0.04,0.052 0.75,-0.205 0.966,0.321 2.724,6.623 0.072,14.331 -7.907,16.416 -0.227,0.06 -2.939,1.488 -3.137,1.503 -0.316,0.025 -0.641,1.426 -0.959,1.44 0.424,1.748 -4.963,2.212 -4.319,0.48 m -62.516,5.626 c -6.004,5.564 -12.81,-6.68 -5.972,-8.843 6.861,-2.17 9.326,5.736 5.972,8.843 m 83.471,10.033 c -5.183,1.54 -6.78,-7.532 0.271,-6.021 1.687,0.361 2.305,5.256 -0.271,6.021 m -108.41,1.96 c -7.802,0.574 -13.559,-9.822 -12.246,-16.787 0.171,-0.909 2.562,-4.865 2.287,-5.149 -0.079,-0.081 -1.474,0.042 -2.221,-0.444 -9.319,-6.059 1.248,-17.008 5.263,-15.317 3.644,1.536 -4.247,5.26 -4.685,7.127 -2.541,10.837 8.018,0.635 8.718,0.489 8.304,-1.727 -1.927,7.194 -2.74,8.42 -3.428,5.167 -3.982,14.972 2.991,17.115 2.026,0.623 8.229,-0.484 5.427,3.283 -0.092,0.123 -2.641,1.251 -2.794,1.263 m 64.748,2.864 c -2.163,2.304 -8.361,1.735 -8.994,-1.506 -2.63,-13.451 15.811,-5.754 8.994,1.506 m -26.872,8.147 c -7.247,1.821 -8.387,-7.996 -2.746,-9.249 6.532,-1.451 7.591,8.032 2.746,9.249 M 8.812,96.172 C 4.983,94.562 1.313,88.291 4.99,87.074 c 2.298,-0.761 1.733,5.657 5.994,5.789 7.17,0.222 -1.13,-8.595 3.467,-9.11 1.455,-0.163 4.092,4.068 5.572,4.783 7.475,3.607 16.457,-2.13 15.662,-10.604 -0.012,-0.119 0.367,0.279 0.046,-2.064 -0.053,-0.387 -1.06,-0.43 -1.006,-0.816 0.372,-2.671 0.414,-0.868 0.96,-0.96 0.399,-0.067 1.558,-0.082 1.919,0 0.155,0.036 0.089,-1.08 0.72,1.316 0.071,0.269 0.664,0.307 0.72,0.604 3.328,-3.15 3.262,4.672 2.842,6.923 -0.725,3.882 -7.599,11.362 -11.776,11.784 -2.149,0.217 -9.529,-1.582 -10.014,-1.436 -0.387,0.117 -0.601,2.462 -1.55,2.899 -1.395,0.641 -1.43,-1.033 -2.536,-0.97 -0.344,0.428 0.82,0.589 -0.96,0.96 -0.508,0.106 -1.323,-0.015 -1.919,0 0.742,1.419 -3.682,1.15 -4.323,0.959 -0.071,-0.022 0.066,-0.933 0.004,-0.959 m -6.488,15.106 c -3.405,5.907 -12.257,1.271 -8.717,-5.608 2.398,-4.659 12.516,-0.98 8.717,5.608 M -42.054,16.972 c -1.143,-2.21 -3.64,-6.417 -6.52,-6.687 -4.567,-0.427 -12.812,4.39 -14.418,9.018 -1.431,4.123 0.319,5.433 -0.32,7.618 -0.676,2.31 -13.308,4.943 -14.612,12.491 -1.844,10.678 9.774,12.372 10.934,17.213 0.909,3.791 -6.663,0.467 -7.488,1.6 -0.827,1.136 1.333,7.714 2.092,9.005 4.133,7.033 12.153,-0.492 13.452,4.342 0.508,1.89 -5.124,10.537 -5.093,14.197 0.057,6.935 8.307,15.373 15.44,15.183 4.448,-0.119 14.026,-6.589 15.379,-6.253 0.158,0.039 1.362,2.318 1.212,3.036 -0.393,1.882 -8.335,7.025 0.251,8.045 8.321,0.988 4.956,-8.449 10.449,-6.732 1.048,0.327 3.777,13.724 6.141,15.473 8.555,8.767 26.652,4 31.581,-6.655 0.884,-1.911 2.201,-8.443 2.797,-8.863 1.853,-1.308 4.252,1.539 5.348,1.907 9.058,3.041 8.023,-3.598 13.513,-6.178 0.095,-0.045 -0.471,-0.789 0.687,-1.002 1.692,-0.311 5.725,-0.083 7.471,0.522 0.83,-0.112 1.588,-0.308 2.399,-0.48 -2.563,-2.216 3.241,-4.296 4.906,-5.784 7.782,-6.956 13.87,-15.817 12.329,-26.576 -0.599,-4.181 -5.752,-10.721 -3.319,-15.16 -0.071,-0.108 -0.777,-1.974 -0.96,-2.4 -0.261,-0.609 -0.945,1.353 -0.48,-1.92 0.243,-1.702 0.938,-2.948 1.44,-4.8 0.251,-0.924 -0.245,-1.936 1.44,-1.92 0.175,-1.284 -0.043,-2.948 0,-4.32 -2.986,-1.038 -1.956,-5.463 -2.908,-8.371 -1.425,-4.35 -5.542,-6.978 -8.629,-10.075 -0.639,-0.642 -0.347,-2.052 -0.485,-2.166 -0.37,-0.305 -2.305,0.223 -2.858,-0.029 -0.083,-0.038 0.076,-0.927 0.004,-0.959 -0.429,-0.188 -1.293,-0.383 -1.44,-0.48 -0.318,-0.211 -0.654,1.827 -0.96,-0.96 -0.224,-2.053 1.116,-6.487 0.96,-10.08 -2.533,-0.013 -2.385,-4.368 -2.906,-5.396 -1.782,-3.52 -6.768,-9.289 -10.253,-11.21 -5.986,-3.299 -20.365,-5.66 -26.67,-4.034 -0.09,0.023 0.433,1.379 -0.959,0.96 -0.228,0.412 0.575,1.226 -0.96,0.96 0.107,0.044 0.664,1.291 1.337,1.891 0.566,0.505 2.267,0.802 2.417,1.072 0.306,0.555 0.075,2.836 0.085,3.757 0.576,0.616 2.603,2.423 1.018,4.037 -1.778,1.81 -2.777,-0.591 -2.938,-0.677 -2.812,-1.498 -6.818,-6.714 -10.677,-6.165 -6.414,0.912 -6.716,15.385 -8.125,16.151 -6.461,3.513 0.095,-9.555 -3.613,-10.845 -6.321,-2.2 -4.867,6.224 -5.417,8.539 -0.837,3.52 -1.758,0.561 -1.919,0.48 -0.662,-0.331 -0.858,-0.045 -1.44,-0.96 -0.031,-0.048 -0.817,0.251 -0.976,-0.311 -1.07,-3.776 0.104,-5.819 1.936,-8.329 0.137,-0.188 0.341,-0.31 0.48,-0.48 0.626,-0.765 0.169,-0.318 0.959,-0.96 0.134,-0.108 1.742,-2.302 2.292,-2.39 1.16,-0.186 1.918,0.477 2.027,0.47 1.093,-0.07 2.262,-0.034 3.359,0 0.076,0.002 1.028,-0.854 1.437,-0.476 0.107,0.1 -0.106,0.853 0.003,0.956 0.477,0.027 0.961,-0.018 1.439,0 0.059,-0.14 -0.063,-0.359 0,-0.48 1.167,-2.215 0.74,-2.581 3.359,-3.36 0.364,-0.346 -0.875,-0.566 0.96,-0.96 0.277,-0.059 0.649,0.029 0.96,0 l 0.957,-1.917 c -2.074,0.002 -4.162,-0.734 -6.236,-0.723 -0.954,0.005 -1.929,0.666 -2.879,0.72 0.223,1.907 -1.743,0.193 -2.173,0.23 -0.315,0.027 -1.438,0.567 -2.577,0.736 -0.306,0.046 -2.704,1.097 -2.928,1.194 l -1.916,2.166 c -0.139,0.864 1.683,0.038 0.733,1.449 -0.962,1.427 -7.966,5.432 -8.868,7.55 -2.074,4.869 -0.582,14.457 -4.352,20.271 -1.295,-3.452 0.106,-7.558 -0.474,-11.04 -0.009,-0.056 -0.949,0.051 -0.958,0.004 v 0.48 c 0.461,3.662 -0.411,7.445 -0.48,11.04 -0.006,0.32 0.005,0.64 0,0.96 2.284,-0.732 1.391,2.856 1.439,4.8 0.008,0.317 0.015,0.644 0,0.96 v 0.96 c -0.152,0.86 0.026,0.96 -0.479,1.92 -1.164,2.208 -1.537,1.984 -2.88,0 -0.516,-0.763 -0.619,-1.147 -0.959,-1.92 -1.407,0.171 -0.796,-0.165 -0.96,-0.96 -0.061,-0.293 0.05,-0.659 0,-0.96 -1.535,0.258 -0.731,-0.518 -0.96,-0.96" /></g><g
           transform="translate(652.2525,111.2186)"
           id="g24"><path
             id="path26"
             style="fill:#343031;fill-opacity:1;fill-rule:nonzero;stroke:none"
             d="M 0,0 C 3.369,-2.149 2.083,-9.098 -1.472,-9.905 -13.047,-12.535 -9.627,6.14 0,0" /></g><g
           transform="translate(703.1554,145.3468)"
           id="g28"><path
             id="path30"
             style="fill:#343031;fill-opacity:1;fill-rule:nonzero;stroke:none"
             d="M 0,0 C 6.816,-7.26 -11.624,-14.957 -8.995,-1.506 -8.361,1.734 -2.163,2.304 0,0" /></g><g
           transform="translate(686.7434,178.8498)"
           id="g32"><path
             id="path34"
             style="fill:#343031;fill-opacity:1;fill-rule:nonzero;stroke:none"
             d="M 0,0 C 3.798,-6.588 -6.32,-10.267 -8.717,-5.608 -12.257,1.27 -3.406,5.907 0,0" /></g><g
           transform="translate(663.3464,130.49)"
           id="g36"><path
             id="path38"
             style="fill:#343031;fill-opacity:1;fill-rule:nonzero;stroke:none"
             d="M 0,0 C 3.353,-3.107 0.889,-11.013 -5.972,-8.843 -12.81,-6.68 -6.005,5.564 0,0" /></g><g
           transform="translate(680.5036,96.7679)"
           id="g40"><path
             id="path42"
             style="fill:#343031;fill-opacity:1;fill-rule:nonzero;stroke:none"
             d="M 0,0 C 2.621,-4.407 -2.513,-9.201 -7.075,-6.483 -13.602,-2.592 -4.345,7.305 0,0" /></g><g
           transform="translate(704.0816,110.6313)"
           id="g44"><path
             id="path46"
             style="fill:#343031;fill-opacity:1;fill-rule:nonzero;stroke:none"
             d="M 0,0 C -1.122,-3.227 -8.3,-2.371 -8.902,0.195 -11.226,10.107 3.261,9.378 0,0" /></g><g
           transform="translate(684.419,67.5717)"
           id="g48"><path
             id="path50"
             style="fill:#343031;fill-opacity:1;fill-rule:nonzero;stroke:none"
             d="M 0,0 C 3.807,-3.166 0.646,-11.22 -5.686,-7.956 -11.427,-4.996 -5.292,4.4 0,0" /></g><g
           transform="translate(676.2828,153.4938)"
           id="g52"><path
             id="path54"
             style="fill:#343031;fill-opacity:1;fill-rule:nonzero;stroke:none"
             d="M 0,0 C 4.845,-1.217 3.786,-10.7 -2.746,-9.249 -8.387,-7.996 -7.246,1.821 0,0" /></g><g
           transform="translate(713.6124,86.685)"
           id="g56"><path
             id="path58"
             style="fill:#343031;fill-opacity:1;fill-rule:nonzero;stroke:none"
             d="M 0,0 C 2.208,-3.799 -0.902,-6.718 -4.669,-5.846 -11.582,-4.246 -4.192,7.215 0,0" /></g><g
           transform="translate(737.3787,93.6637)"
           id="g60"><path
             id="path62"
             style="fill:#343031;fill-opacity:1;fill-rule:nonzero;stroke:none"
             d="m 0,0 c 7.407,-0.244 2.806,-12.403 -3.359,-6.24 0.118,1.017 0.057,1.079 -0.96,0.96 -0.089,0.434 -0.102,2.503 0,2.88 C -3.963,-1.088 -1.492,0.049 0,0" /></g><g
           transform="translate(720.9418,121.3761)"
           id="g64"><path
             id="path66"
             style="fill:#343031;fill-opacity:1;fill-rule:nonzero;stroke:none"
             d="M 0,0 C 3.899,-0.617 4.49,-8.222 -1.018,-8.031 -6.501,-7.842 -4.95,0.783 0,0" /></g><g
           transform="translate(659.6346,85.8634)"
           id="g68"><path
             id="path70"
             style="fill:#343031;fill-opacity:1;fill-rule:nonzero;stroke:none"
             d="m 0,0 c 0,-1.887 -1.529,-3.417 -3.416,-3.417 -1.886,0 -3.415,1.53 -3.415,3.417 0,1.887 1.529,3.417 3.415,3.417 C -1.529,3.417 0,1.887 0,0" /></g><g
           transform="translate(676.5527,119.6924)"
           id="g72"><path
             id="path74"
             style="fill:#343031;fill-opacity:1;fill-rule:nonzero;stroke:none"
             d="M 0,0 C -1.555,3.169 1.938,7.756 5.379,4.669 9.595,0.886 1.674,-3.412 0,0" /></g><g
           transform="translate(746.817,140.5226)"
           id="g76"><path
             id="path78"
             style="fill:#343031;fill-opacity:1;fill-rule:nonzero;stroke:none"
             d="M 0,0 C 2.576,-0.765 1.958,-5.659 0.271,-6.021 -6.78,-7.532 -5.183,1.54 0,0" /></g><g
           transform="translate(633.3249,90.3863)"
           id="g80"><path
             id="path82"
             style="fill:#343031;fill-opacity:1;fill-rule:nonzero;stroke:none"
             d="M 0,0 C -1.727,2.763 2.756,3.037 3.277,1.578 3.911,-0.195 0.735,-1.176 0,0" /></g><g
           transform="translate(731.875,29.5579)"
           id="g84"><path
             id="path86"
             style="fill:#343031;fill-opacity:1;fill-rule:nonzero;stroke:none"
             d="M 0,0 C -5.438,-6.998 -14.485,4.728 -7.071,8.881 -1.382,12.068 4.547,5.851 0,0" /></g><g
           transform="translate(726.2089,188.561)"
           id="g88"><path
             id="path90"
             style="fill:#343031;fill-opacity:1;fill-rule:nonzero;stroke:none"
             d="M 0,0 C 3.099,-1.082 4.029,-7.738 -0.213,-8.868 -9.812,-11.427 -8.228,2.874 0,0" /></g><g
           transform="translate(778.0253,105.8063)"
           id="g92"><path
             id="path94"
             style="fill:#343031;fill-opacity:1;fill-rule:nonzero;stroke:none"
             d="M 0,0 C -3.782,-3.772 -11.596,1.324 -6.771,6.533 -2.666,10.967 3.83,3.82 0,0" /></g><g
           transform="translate(666.5601,200.196)"
           id="g96"><path
             id="path98"
             style="fill:#343031;fill-opacity:1;fill-rule:nonzero;stroke:none"
             d="m 0,0 c 0,-4.453 -3.609,-8.063 -8.061,-8.063 -4.452,0 -8.061,3.61 -8.061,8.063 0,4.453 3.609,8.063 8.061,8.063 C -3.609,8.063 0,4.453 0,0" /></g><g
           transform="translate(633.0981,59.7335)"
           id="g100"><path
             id="path102"
             style="fill:#343031;fill-opacity:1;fill-rule:nonzero;stroke:none"
             d="M 0,0 C -4.376,-5.331 -16.028,-1.038 -11.998,9.326 -8.756,17.666 7.988,9.732 0,0" /></g><g
           transform="translate(587.9114,128.4799)"
           id="g104"><path
             id="path106"
             style="fill:#343031;fill-opacity:1;fill-rule:nonzero;stroke:none"
             d="M 0,0 C -4.089,8.176 7.272,13.237 10.804,6.244 14.781,-1.631 3.567,-7.132 0,0" /></g><g
           transform="translate(733.0599,161.3437)"
           id="g108"><path
             id="path110"
             style="fill:#e8e8e8;fill-opacity:1;fill-rule:nonzero;stroke:none"
             d="m 0,0 c 17.828,-3.781 25.979,-26.664 18.056,-42.529 -0.988,-1.978 -3.95,-4.701 -4.14,-4.991 -2.432,4.439 2.72,10.978 3.319,15.16 1.541,10.759 -4.547,19.62 -12.329,26.576 C 3.241,-4.296 -2.563,-2.217 0,0" /></g><g
           transform="translate(732.1002,65.3438)"
           id="g112"><path
             id="path114"
             style="fill:#e8e8e8;fill-opacity:1;fill-rule:nonzero;stroke:none"
             d="m 0,0 c -0.458,-10.563 -8.06,-19.7 -17.687,-23.812 -9.152,-3.909 -16.51,-6.217 -22.142,3.172 -0.049,0.082 -0.156,-0.493 -0.96,0.96 1.392,0.419 0.87,-0.937 0.96,-0.96 6.305,-1.626 20.684,0.735 26.67,4.034 3.485,1.921 8.471,7.689 10.253,11.209 C -2.386,-4.368 -2.533,-0.014 0,0" /></g><g
           transform="translate(647.6436,68.2237)"
           id="g116"><path
             id="path118"
             style="fill:#e8e8e8;fill-opacity:1;fill-rule:nonzero;stroke:none"
             d="m 0,0 c 0.01,0.047 0.949,-0.06 0.958,-0.004 0.58,3.482 -0.821,7.588 0.474,11.04 3.771,-5.814 2.279,-15.402 4.352,-20.271 0.902,-2.118 7.907,-6.123 8.868,-7.55 0.95,-1.411 -0.871,-0.585 -0.733,-1.449 l 1.917,-1.446 C 9.115,-16.774 -1.643,-8.011 0,0" /></g><g
           transform="translate(748.4156,98.4637)"
           id="g120"><path
             id="path122"
             style="fill:#e8e8e8;fill-opacity:1;fill-rule:nonzero;stroke:none"
             d="m 0,0 c 0.374,-12.038 -1.527,-20.112 -14.876,-21.6 0.073,0.032 -0.087,0.921 -0.004,0.959 0.554,0.252 2.488,-0.277 2.859,0.029 0.137,0.114 -0.155,1.524 0.484,2.166 3.087,3.097 7.204,5.725 8.629,10.075 C -1.956,-5.463 -2.986,-1.038 0,0" /></g><g
           transform="translate(692.2712,56.7037)"
           id="g124"><path
             id="path126"
             style="fill:#e8e8e8;fill-opacity:1;fill-rule:nonzero;stroke:none"
             d="M 0,0 C 0.161,0.086 1.159,2.487 2.937,0.677 4.523,-0.937 2.496,-2.744 1.919,-3.36 1.91,-4.281 2.141,-6.562 1.834,-7.117 c -0.149,-0.271 -1.85,-0.567 -2.416,-1.072 -0.673,-0.6 -1.23,-1.847 -1.337,-1.891 -2.174,-0.889 -12.104,-2.015 -14.662,-1.92 -0.919,0.034 -1.925,-0.492 -1.654,0.96 2.074,-0.011 4.162,0.005 6.235,0.003 l -0.956,1.917 C -7.492,-9.622 -1.911,-7.454 1.919,-3.36 1.94,-1.396 3.573,0.215 0,0" /></g><g
           transform="translate(647.6436,68.7038)"
           id="g128"><path
             id="path130"
             style="fill:#e8e8e8;fill-opacity:1;fill-rule:nonzero;stroke:none"
             d="M 0,0 C -2.599,2.083 -1.505,8.343 -0.48,11.04 -0.411,7.445 0.461,3.662 0,0" /></g><g
           transform="translate(730.6606,161.8237)"
           id="g132"><path
             id="path134"
             style="fill:#e8e8e8;fill-opacity:1;fill-rule:nonzero;stroke:none"
             d="M 0,0 C -1.745,-0.605 -5.779,-0.833 -7.471,-0.522 -8.629,-0.309 -8.063,0.435 -8.158,0.48 -5.359,0.721 -2.763,0.374 0,0" /></g><g
           transform="translate(648.6034,85.5037)"
           id="g136"><path
             id="path138"
             style="fill:#e8e8e8;fill-opacity:1;fill-rule:nonzero;stroke:none"
             d="M 0,0 C -0.049,-1.944 0.845,-5.532 -1.44,-4.8 -1.462,-3.445 -1.919,0.154 0,0" /></g><g
           transform="translate(648.1235,89.3438)"
           id="g140"><path
             id="path142"
             style="fill:#e8e8e8;fill-opacity:1;fill-rule:nonzero;stroke:none"
             d="M 0,0 H -2.879 C -1.536,1.984 -1.163,2.208 0,0" /></g><g
           transform="translate(669.2377,46.6237)"
           id="g144"><path
             id="path146"
             style="fill:#e8e8e8;fill-opacity:1;fill-rule:nonzero;stroke:none"
             d="M 0,0 C 0.43,-0.037 2.142,0.947 1.919,-0.96 0.721,-0.892 -0.302,-1.451 0,0" /></g><g
           transform="translate(748.4156,102.7837)"
           id="g148"><path
             id="path150"
             style="fill:#e8e8e8;fill-opacity:1;fill-rule:nonzero;stroke:none"
             d="M 0,0 C -1.685,-0.016 -1.189,0.996 -1.44,1.92 0.106,1.907 -0.15,1.097 0,0" /></g><g
           transform="translate(746.0163,111.4238)"
           id="g152"><path
             id="path154"
             style="fill:#e8e8e8;fill-opacity:1;fill-rule:nonzero;stroke:none"
             d="M 0,0 -0.48,-1.92 C -0.946,1.353 -0.261,-0.609 0,0" /></g><g
           transform="translate(732.1002,76.3837)"
           id="g156"><path
             id="path158"
             style="fill:#e8e8e8;fill-opacity:1;fill-rule:nonzero;stroke:none"
             d="M 0,0 C 0.118,-1.017 0.057,-1.078 -0.96,-0.96 -0.654,1.827 -0.318,-0.211 0,0" /></g><g
           transform="translate(648.6034,86.4637)"
           id="g160"><path
             id="path162"
             style="fill:#e8e8e8;fill-opacity:1;fill-rule:nonzero;stroke:none"
             d="M 0,0 C -0.023,0.475 0.008,0.913 0,0.96 Z" /></g><g
           transform="translate(699.4692,163.7437)"
           id="g164"><path
             id="path166"
             style="fill:#e8e8e8;fill-opacity:1;fill-rule:nonzero;stroke:none"
             d="m 0,0 c 1.78,-0.371 0.615,-0.532 0.96,-0.96 1.106,-0.064 1.14,1.611 2.535,0.97 0.95,-0.437 1.164,-2.782 1.551,-2.899 0.484,-0.147 7.865,1.653 10.014,1.436 4.177,-0.423 11.051,-7.902 11.776,-11.784 0.42,-2.251 0.486,-10.073 -2.843,-6.923 1.618,8.649 -4.471,16.771 -13.214,17.277 C 7.697,-2.704 5.057,-4.475 3.233,-4.322 2.468,-4.258 1.255,-1.327 0.96,-0.96 0.001,-0.905 -0.129,-1.247 0,0" /></g><g
           transform="translate(731.1404,124.3837)"
           id="g168"><path
             id="path170"
             style="fill:#e8e8e8;fill-opacity:1;fill-rule:nonzero;stroke:none"
             d="m 0,0 c 0.197,-0.015 2.91,-0.004 3.137,-0.063 7.979,-2.085 10.631,-12.673 7.907,-19.296 -0.216,-0.526 -0.927,-0.269 -0.967,-0.321 0.544,0.85 0.215,1.915 -0.96,1.92 0.033,-0.371 -0.015,-3.445 0.96,-1.92 -1.12,-1.459 -1.328,-0.321 -1.427,-0.713 -0.023,-0.092 0.817,-1.28 0.485,-1.841 -1.32,-2.224 -4.023,-2.752 -2.9,-6.563 -2.517,0.069 0.602,4.654 -1.916,4.797 -0.13,-0.335 -0.474,-0.907 -0.48,-0.96 -1.014,0.679 -0.533,1.018 0.48,0.96 0.583,1.505 2.953,2.324 3.688,3.487 0.774,1.227 -0.879,2.762 1.11,2.753 -0.423,4.805 0.382,6.812 -1.986,11.58 C 5.984,-3.871 1.475,-1.953 0,0" /></g><g
           transform="translate(721.5431,62.4637)"
           id="g172"><path
             id="path174"
             style="fill:#e8e8e8;fill-opacity:1;fill-rule:nonzero;stroke:none"
             d="m 0,0 c 2.364,-2.987 -0.683,-1.776 -1.766,-3.031 -2.043,-2.367 -3.055,-6.639 -8.071,-6.597 -2.749,0.023 -0.75,1.114 -3.119,1.948 1.233,0.308 5.593,2.647 6.73,3.575 C -3.089,-1.542 -5.49,0.168 0,0" /></g><g
           transform="translate(729.221,76.8637)"
           id="g176"><path
             id="path178"
             style="fill:#e8e8e8;fill-opacity:1;fill-rule:nonzero;stroke:none"
             d="m 0,0 1.888,-7.8 c -1.194,-1.479 -2.636,-4.912 -4.518,-5.691 -1.337,-0.552 -1.668,0.113 -2.649,0.051 C -1.502,-9.122 0.76,-6.086 0,0" /></g><g
           transform="translate(726.3418,79.7437)"
           id="g180"><path
             id="path182"
             style="fill:#e8e8e8;fill-opacity:1;fill-rule:nonzero;stroke:none"
             d="M 0,0 C -1.012,-5.538 1.498,-6.286 -2.879,-11.04 -0.217,-8.399 -2.915,-0.958 0,0" /></g><g
           transform="translate(735.4592,96.5437)"
           id="g184"><path
             id="path186"
             style="fill:#e8e8e8;fill-opacity:1;fill-rule:nonzero;stroke:none"
             d="m 0,0 c 0.904,-3.589 0.878,-0.526 1.919,-2.88 -1.491,0.049 -3.962,-1.088 -4.318,-2.4 0.124,1.495 -0.074,0.487 -1.92,0.48 0.273,1.214 1.753,0.671 2.289,1.101 C -1.099,-2.952 -1.39,0.164 0,0" /></g><g
           transform="translate(661.0799,63.9037)"
           id="g188"><path
             id="path190"
             style="fill:#e8e8e8;fill-opacity:1;fill-rule:nonzero;stroke:none"
             d="m 0,0 0.96,-8.64 c -1.831,2.51 -3.006,4.553 -1.936,8.329 C -0.817,0.251 -0.031,-0.048 0,0" /></g><g
           transform="translate(723.4626,92.7038)"
           id="g192"><path
             id="path194"
             style="fill:#e8e8e8;fill-opacity:1;fill-rule:nonzero;stroke:none"
             d="m 0,0 c 1.535,0.274 0.735,-0.582 0.96,-0.96 1.752,-0.181 3.934,-0.002 5.758,0 0.029,-2.792 -4.729,-1.732 -5.758,0 -0.399,0.041 -1.314,-0.094 -1.437,0.004 C -0.809,-0.691 -0.005,-0.053 0,0" /></g><g
           transform="translate(730.1807,95.5837)"
           id="g196"><path
             id="path198"
             style="fill:#e8e8e8;fill-opacity:1;fill-rule:nonzero;stroke:none"
             d="M 0,0 C -1.549,-1.95 -3.534,-0.604 -6.238,-0.96 -4.945,1.045 -2.548,-0.399 0,0" /></g><g
           transform="translate(662.5195,54.7837)"
           id="g200"><path
             id="path202"
             style="fill:#e8e8e8;fill-opacity:1;fill-rule:nonzero;stroke:none"
             d="M 0,0 C 1.175,0.365 0.898,-0.916 0.96,-0.96 2.043,-1.729 4.204,-1.944 5.279,-2.88 5.17,-2.873 4.411,-3.536 3.252,-3.35 2.702,-3.262 1.093,-1.068 0.96,-0.96 0.169,-0.319 0.626,-0.765 0,0" /></g><g
           transform="translate(674.0363,51.9037)"
           id="g204"><path
             id="path206"
             style="fill:#e8e8e8;fill-opacity:1;fill-rule:nonzero;stroke:none"
             d="m 0,0 c 1.581,-0.08 2.629,-2.664 3.359,-3.36 0.682,-0.203 1.158,0.511 0.96,-0.96 -1.836,0.394 -0.596,0.613 -0.96,0.96 C 0.74,-2.582 1.166,-2.215 0,0" /></g><g
           transform="translate(725.8619,124.8637)"
           id="g208"><path
             id="path210"
             style="fill:#e8e8e8;fill-opacity:1;fill-rule:nonzero;stroke:none"
             d="M 0,0 C -0.643,1.732 4.743,1.268 4.319,-0.48 2.952,-0.42 1.737,0.208 0,0" /></g><g
           transform="translate(693.231,163.7437)"
           id="g212"><path
             id="path214"
             style="fill:#e8e8e8;fill-opacity:1;fill-rule:nonzero;stroke:none"
             d="M 0,0 C 0.062,0.026 -0.075,0.937 -0.004,0.959 0.637,1.15 5.061,1.419 4.319,0 2.883,0.037 1.436,-0.026 0,0" /></g><g
           transform="translate(725.3821,124.8637)"
           id="g216"><path
             id="path218"
             style="fill:#e8e8e8;fill-opacity:1;fill-rule:nonzero;stroke:none"
             d="M 0,0 C -0.822,-1.55 -0.822,-1.81 0,-3.36 -2.561,-2.929 -2.048,-0.655 0,0" /></g><g
           transform="translate(707.1471,54.7837)"
           id="g220"><path
             id="path222"
             style="fill:#e8e8e8;fill-opacity:1;fill-rule:nonzero;stroke:none"
             d="M 0,0 C -2.887,-0.214 -1.133,0.389 -1.919,0.96 Z" /></g><g
           transform="translate(664.439,64.3837)"
           id="g224"><path
             id="path226"
             style="fill:#e8e8e8;fill-opacity:1;fill-rule:nonzero;stroke:none"
             d="M 0,0 -1.919,0.48 C -1.758,0.561 -0.837,3.52 0,0" /></g><g
           transform="translate(723.4626,142.6237)"
           id="g228"><path
             id="path230"
             style="fill:#e8e8e8;fill-opacity:1;fill-rule:nonzero;stroke:none"
             d="M 0,0 C -0.631,-2.395 -1.284,-0.924 -1.44,-0.96 Z" /></g><g
           transform="translate(720.1035,145.5037)"
           id="g232"><path
             id="path234"
             style="fill:#e8e8e8;fill-opacity:1;fill-rule:nonzero;stroke:none"
             d="M 0,0 C 0.023,-1.133 0.321,-1.667 -0.96,-1.44 -0.639,0.903 -0.011,-0.119 0,0" /></g><g
           transform="translate(723.4626,63.4237)"
           id="g236"><path
             id="path238"
             style="fill:#e8e8e8;fill-opacity:1;fill-rule:nonzero;stroke:none"
             d="M 0,0 C 0.053,-0.265 -0.081,-0.891 0,-0.96 0.073,-1.022 1.964,-0.91 0.957,-1.917 -0.085,-2.959 0.094,-0.978 0,-0.96 c -0.426,0.082 -0.979,-0.052 -1.44,0 C -1.664,0.376 -1.116,-0.022 0,0" /></g><g
           transform="translate(672.5967,52.3837)"
           id="g240"><path
             id="path242"
             style="fill:#e8e8e8;fill-opacity:1;fill-rule:nonzero;stroke:none"
             d="M 0,0 C 0.114,0.108 0.334,2.633 1.44,0 0.961,-0.018 0.477,0.027 0,0 -0.108,-0.103 0.104,-0.856 -0.003,-0.956 -0.412,-1.334 -1.364,-0.478 -1.44,-0.48 -1.158,0.131 -0.538,-0.03 0,0" /></g><g
           transform="translate(727.3015,79.7437)"
           id="g244"><path
             id="path246"
             style="fill:#e8e8e8;fill-opacity:1;fill-rule:nonzero;stroke:none"
             d="M 0,0 C 0.402,-0.058 1.006,0.183 1.365,-0.077 1.601,-0.249 1.366,-0.811 1.44,-0.96 0.307,-0.983 -0.227,-1.282 0,0" /></g><g
           transform="translate(719.1438,142.6237)"
           id="g248"><path
             id="path250"
             style="fill:#e8e8e8;fill-opacity:1;fill-rule:nonzero;stroke:none"
             d="M 0,0 C 1.017,0.118 1.078,0.057 0.96,-0.96 0.414,-0.868 0.372,-2.671 0,0" /></g><g
           transform="translate(733.0599,88.3837)"
           id="g252"><path
             id="path254"
             style="fill:#e8e8e8;fill-opacity:1;fill-rule:nonzero;stroke:none"
             d="M 0,0 C 1.017,0.118 1.078,0.057 0.96,-0.96 0.676,-0.677 0.347,-1.684 0,0" /></g><g
           transform="translate(638.4066,142.4824)"
           id="g256"><path
             id="path258"
             style="fill:#343031;fill-opacity:1;fill-rule:nonzero;stroke:none"
             d="m 0,0 c 0.153,-0.011 2.703,-1.14 2.794,-1.263 2.803,-3.767 -3.401,-2.66 -5.427,-3.283 -6.973,-2.143 -6.419,-11.947 -2.991,-17.115 0.813,-1.225 11.044,-10.147 2.741,-8.419 -0.701,0.145 -11.26,10.348 -8.719,-0.489 0.438,-1.868 8.329,-5.592 4.685,-7.127 -4.014,-1.692 -14.582,9.257 -5.262,15.317 0.746,0.485 2.142,0.362 2.221,0.444 0.274,0.283 -2.116,4.239 -2.288,5.148 C -13.559,-9.821 -7.802,0.574 0,0" /></g><g
           transform="translate(692.8898,163.5879)"
           id="g260"><path
             id="path262"
             style="fill:#343031;fill-opacity:1;fill-rule:nonzero;stroke:none"
             d="M 0,0 C 0.223,0.11 0.47,0.153 0.719,0.151 2.031,0.14 3.35,0.19 4.66,0.156 c 0.381,-0.01 0.851,0.036 1.274,0.043 0.43,0.007 0.851,-0.138 1.167,-0.43 1.362,-1.258 2.029,-3.878 2.712,-3.935 1.823,-0.153 4.463,1.618 7.545,1.439 8.743,-0.506 14.833,-8.629 13.215,-17.277 -0.031,-0.163 -0.118,-0.429 -0.202,-0.68 -0.116,-0.347 -0.344,-0.644 -0.648,-0.847 l -0.309,-0.206 c -0.206,-0.137 -0.436,-0.226 -0.681,-0.262 -0.72,-0.103 -2.079,-0.136 -2.479,1.035 -0.048,0.347 -0.01,1.475 0.698,2.532 0.158,0.236 0.279,0.501 0.294,0.785 0.453,8.233 -8.348,13.712 -15.694,10.166 -1.479,-0.714 -4.117,-4.945 -5.572,-4.782 -4.597,0.515 3.703,9.332 -3.467,9.11 -4.261,-0.132 -3.696,-6.55 -5.994,-5.789 C -7.048,-7.761 -3.7,-1.823 0,0" /></g><g
           transform="translate(664.439,64.3837)"
           id="g264"><path
             id="path266"
             style="fill:#343031;fill-opacity:1;fill-rule:nonzero;stroke:none"
             d="M 0,0 C 0.55,-2.315 -0.904,-10.739 5.417,-8.54 9.125,-7.249 2.569,5.819 9.03,2.306 c 1.409,-0.766 1.711,-15.24 8.125,-16.151 3.859,-0.549 7.865,4.667 10.677,6.165 3.573,0.215 1.94,-1.396 1.92,-3.36 -3.831,-4.094 -9.061,-5.76 -14.624,-6.001 -0.312,-0.013 -1.737,-0.246 -2.172,1.201 -0.73,0.696 -3.273,3.4 -3.404,3.479 -1.225,0.741 -1.105,0.369 -2.834,-0.119 -1.736,-0.557 -2.266,-0.07 -3.359,0 -1.494,0.551 -4.519,0.878 -5.278,2.88 -0.139,0.17 -0.343,0.292 -0.48,0.48 l -0.96,8.64 c 0.582,0.915 0.778,0.629 1.44,0.96 0.066,0.043 0.554,0.349 1.145,0.162 C -0.277,0.485 -0.048,0.088 0,0" /></g><g
           transform="translate(730.1807,124.3837)"
           id="g268"><path
             id="path270"
             style="fill:#343031;fill-opacity:1;fill-rule:nonzero;stroke:none"
             d="m 0,0 c 0.273,-0.164 6.944,-3.871 8.091,-6.18 2.368,-4.768 2.363,-7.721 1.986,-11.58 0,-1.374 -0.337,-1.526 -1.111,-2.753 -0.509,-0.807 -2.077,-2.471 -3.156,-3.528 -0.631,-0.618 -0.954,-1.481 -0.881,-2.361 0.071,-0.871 0.125,-1.861 0.01,-2.118 -0.456,-1.025 -0.946,-2.422 -1.69,-3.019 -0.537,-0.43 -0.581,-0.571 -1.722,-1.178 -0.32,-0.001 -2.337,-0.939 -7.285,0.077 -0.48,0.245 -0.822,-0.019 -0.96,0.96 0.076,0.868 -0.055,1.091 0.48,1.92 2.704,0.356 4.689,-0.99 6.238,0.96 3.871,4.873 -3.658,4.837 -2.808,7.816 0.914,3.205 6.964,-1.746 8.554,2.616 3.108,8.524 -2.41,13.815 -9.754,15.339 -0.528,0.11 -0.977,0.462 -1.191,0.958 -0.309,0.718 -0.287,1.128 0.066,1.89 0.201,0.432 0.62,0.724 1.094,0.771 C -3.023,0.691 -1.214,0.728 0,0" /></g><g
           transform="translate(728.9841,78.8014)"
           id="g272"><path
             id="path274"
             style="fill:#343031;fill-opacity:1;fill-rule:nonzero;stroke:none"
             d="m 0,0 c 0.228,-1.202 0.118,-0.987 0.237,-1.938 0.76,-6.085 -1.502,-9.122 -5.279,-13.44 -0.158,-0.01 -0.598,-1.09 -1.919,-0.96 -0.156,0.018 -0.321,-0.005 -0.48,0 -5.49,0.168 -3.09,-1.542 -6.226,-4.105 -1.137,-0.928 -5.497,-3.267 -6.73,-3.575 -0.373,-0.093 -0.984,0.034 -1.44,0 l -1.919,0.96 c -0.971,0.705 -4.957,3.93 -1.781,4.637 3.297,0.733 2.049,-1.816 4.889,-1.799 1.271,0.007 5.681,2.547 4.95,3.803 -0.173,0.296 -7.216,2.845 -2.64,4.236 4.951,1.504 7.407,-3.793 12.816,2.083 4.137,4.493 2.123,5.408 2.743,10.168 0.075,0.574 0.522,1.045 1.097,1.109 C -1.004,1.255 0.02,1.121 0,0" /></g><g
           transform="translate(722.5029,162.3037)"
           id="g276"><path
             id="path278"
             style="fill:#343031;fill-opacity:1;fill-rule:nonzero;stroke:none"
             d="m 0,0 c -5.49,2.58 -4.455,9.219 -13.513,6.178 -1.096,-0.368 -3.495,-3.215 -5.348,-1.907 -0.596,0.42 -1.912,6.952 -2.797,8.863 -4.929,10.655 -23.026,15.422 -31.581,6.655 -2.364,-1.749 -5.093,-15.146 -6.141,-15.473 -5.493,-1.717 -2.128,7.72 -10.449,6.732 -8.586,-1.02 -0.644,-6.163 -0.251,-8.045 0.15,-0.718 -1.053,-2.997 -1.212,-3.036 -1.353,-0.336 -10.931,6.134 -15.378,6.252 -7.134,0.19 -15.384,-8.248 -15.441,-15.182 -0.031,-3.66 5.601,-12.307 5.093,-14.197 -1.299,-4.834 -9.319,2.69 -13.452,-4.342 -0.759,-1.291 -2.919,-7.869 -2.092,-9.005 0.825,-1.133 8.397,2.191 7.488,-1.6 -1.16,-4.841 -12.778,-6.536 -10.934,-17.213 1.304,-7.548 13.936,-10.181 14.612,-12.491 0.639,-2.185 -1.111,-3.495 0.32,-7.618 1.607,-4.628 9.851,-9.445 14.418,-9.018 2.88,0.27 5.377,4.477 6.52,6.687 0,3.166 3.802,6.047 4.444,6.636 0.576,0.051 1.124,-0.228 1.396,-0.71 0.345,-0.609 0.421,-5.283 0.399,-4.966 0.234,-3.353 -1.386,-5.445 -1.44,-5.76 -0.48,-2.82 -0.48,-7.181 0.48,-11.04 v -0.48 c -1.643,-8.011 9.115,-16.774 15.835,-19.68 0.224,-0.097 10.513,-6.258 26.873,-1.92 1.535,0.266 1.87,-1.838 1.919,-1.92 5.632,-9.389 12.99,-7.081 22.142,-3.172 7.899,3.374 17.229,13.317 17.687,23.812 0.177,4.06 -2.658,9.28 -0.41,11.01 0.595,0.458 1.329,0.431 1.85,0.51 6.542,0.99 9.976,3.553 10.966,4.62 3.523,3.799 4.138,9.656 3.91,16.98 -0.043,1.372 0.105,6.227 -1.44,6.24 -0.502,1.852 -1.197,3.098 -1.439,4.8 l 0.479,1.92 c 0.183,0.426 0.889,2.292 0.96,2.4 0.19,0.29 3.152,3.013 4.14,4.991 C 36.536,-27.624 28.385,-4.741 10.557,-0.96 9.746,-0.788 8.989,-0.592 8.158,-0.48 5.395,-0.106 2.799,0.241 0,0 m -25.162,23.316 c 5.587,-3.546 8.196,-13.211 8.873,-13.69 0.336,-0.238 5.192,1.366 6.481,1.421 7.226,0.31 9.611,-7.21 11.12,-7.688 1.779,-0.564 6.692,0.333 9.027,0.023 7.7,-1.022 17.799,-10.374 21.264,-17.244 6.043,-11.982 5.897,-19.469 0.157,-31.587 -0.738,-1.561 -4.91,-6.699 -4.937,-7.132 -0.023,-0.372 2.7,-4.413 2.951,-6.677 1.229,-11.067 0.081,-23.727 -11.417,-28.558 -0.721,-0.303 -5.177,-0.824 -5.398,-0.987 -0.234,-0.173 0.918,-2.269 0.969,-3.105 1.192,-19.526 -18.422,-38.296 -37.699,-35.792 -6.21,0.807 -9.468,7.944 -10.12,8.148 -1.352,0.422 -4.988,-1.313 -6.657,-1.409 -15.284,-0.881 -35.696,8.148 -38.596,24.755 -0.45,2.578 0.341,11.275 -0.037,11.723 -0.797,0.943 -3.663,-3.064 -3.969,-3.214 -6.253,-3.069 -19.538,3.856 -21.557,10.562 -0.643,2.133 -0.73,7.601 -0.934,7.945 -0.197,0.332 -5.779,2.452 -6.981,3.306 -8.962,6.365 -10.637,15.994 -2.381,23.939 0.563,0.542 1.698,0.595 1.75,0.672 0.196,0.289 -3.701,1.998 -3.78,5.507 -0.056,2.48 3.601,12.903 6.137,14.082 2.705,1.257 8.338,0.768 8.682,1.047 0.461,0.375 -2.723,5.673 -2.833,6.133 -2.707,11.366 5.53,24.293 17.551,24.539 2.457,0.05 9.406,-2.718 9.755,-2.357 0.282,0.292 0.104,4.998 3.992,6.553 1.889,0.755 5.982,1.496 8.13,1.102 0.565,-0.103 3.977,-2.999 4.423,-2.855 0.313,0.1 2.133,5.172 2.639,6.018 7.589,12.692 21.751,12.208 33.395,4.82" /></g><g
           transform="translate(777.0761,632.6051)"
           id="g280"><path
             id="path282"
             style="fill:#fefefe;fill-opacity:1;fill-rule:nonzero;stroke:none"
             d="m 0,0 c 8.95,-1.3 24.12,-12.682 28.895,-20.439 15.333,-24.912 3.978,-69.202 -5.752,-95.27 -21.433,-57.425 -113.338,-120.655 -167.138,-146.096 -2.089,-0.988 -16.44,-7.315 -17.383,-7.347 -0.338,-0.012 -1.041,-0.131 -1.161,-0.03 -0.642,0.539 -4.411,13.598 -5.36,15.897 -6.615,16.01 -15.82,31.662 -26.795,45.064 2.066,2.542 4.04,5.36 6.275,7.768 12.417,13.368 31.237,21.44 45.564,34.205 29.647,26.415 58.115,66.678 83.171,98.017 15.077,18.856 35.335,40.141 47.648,60.343 0.918,1.505 3.497,9.758 3.754,10.097 C -8.011,2.565 -0.871,0.127 0,0" /></g><g
           transform="translate(584.3012,745.9838)"
           id="g284"><path
             id="path286"
             style="fill:#e8e8e8;fill-opacity:1;fill-rule:nonzero;stroke:none"
             d="m 0,0 c 0.907,-2.235 1.166,-3.511 0.999,-6.061 -1.527,-23.367 -19.845,-65.418 -28.807,-88.858 -11.244,-29.408 -21.884,-62.446 -40.36,-89.025 -14.23,-20.472 -32.81,-37.84 -46.13,-59.088 -2.003,-3.195 -3.505,-6.748 -5.631,-9.853 -0.214,-0.313 0.106,-1.348 -0.046,-1.506 -0.355,-0.368 -2.293,0.791 -1.911,-0.969 -6.314,1.054 -13.06,2.29 -19.422,2.893 -2.227,0.211 -6.998,-0.515 -8.649,-0.016 -1.365,0.413 4.951,4.268 5.599,4.846 13.32,11.887 37.615,53.388 48.327,70.451 15.578,24.814 34.171,53.594 44.147,81.1 C -40.426,-64.497 -34.295,-15.501 0,0" /></g><g
           transform="translate(768.1574,632.634)"
           id="g288"><path
             id="path290"
             style="fill:#e8e8e8;fill-opacity:1;fill-rule:nonzero;stroke:none"
             d="m 0,0 c -0.257,-0.339 -2.2,-6.412 -3.117,-7.917 -12.313,-20.201 -32.572,-41.487 -47.648,-60.343 -25.056,-31.338 -53.524,-71.602 -83.171,-98.017 -14.327,-12.765 -33.147,-20.836 -45.564,-34.205 -2.236,-2.408 -4.21,-5.226 -6.276,-7.768 -4.482,5.472 -9.593,10.635 -14.72,15.491 -0.732,2.773 0.885,1.316 2.794,2.457 33.798,20.2 81.33,63.225 102.122,96.662 9.838,15.82 11.735,22.444 26.129,45.511 20.98,33.624 31.889,38.944 42.443,45.376 C -17.584,2.99 1.42,3.787 1.441,3.603 1.441,3.601 0,0 0,0" /></g><g
           transform="translate(617.412,306.7838)"
           id="g292"><path
             id="path294"
             style="fill:#e8e8e8;fill-opacity:1;fill-rule:nonzero;stroke:none"
             d="M 0,0 C 1.943,-0.298 0.125,2.132 1.744,2.816 2.457,3.117 3.7,2.656 4.454,2.9 19.472,7.762 66.877,2.949 85.203,0.996 c 33.971,-3.621 56.732,-10.892 89.595,-19.26 0.501,-0.128 2.157,-2.421 4.192,-0.936 -13.14,-8.847 -24.406,-12.881 -40.529,-13.94 -43.447,-2.853 -89.693,5.732 -131.872,15.011 -2.3,0.968 -2.125,6.14 -2.889,8.63 C 2.69,-6.201 1.522,-3.078 0,0" /></g><g
           transform="translate(584.3012,745.9838)"
           id="g296"><path
             id="path298"
             style="fill:#fefefe;fill-opacity:1;fill-rule:nonzero;stroke:none"
             d="m 0,0 c 24.271,10.97 65.964,4.137 80.9,-19.88 23.253,-37.392 -5.011,-102.611 -21.942,-139.068 -21.955,-47.276 -52.044,-87.781 -80.235,-131.083 -0.833,-1.279 -3.411,-7.244 -3.718,-7.53 -0.878,-0.818 -5.29,3.844 -6.715,4.881 -26.726,19.448 -57.37,31.843 -90.176,37.32 -0.382,1.76 1.556,0.601 1.911,0.969 0.152,0.158 -0.168,1.193 0.046,1.506 2.126,3.105 3.628,6.658 5.631,9.853 13.32,21.248 31.9,38.616 46.13,59.088 18.476,26.579 29.116,59.617 40.36,89.025 8.962,23.44 27.28,65.491 28.807,88.858 C 1.166,-3.511 0.907,-2.235 0,0" /></g><g
           transform="translate(392.3545,744.5438)"
           id="g300"><path
             id="path302"
             style="fill:#e8e8e8;fill-opacity:1;fill-rule:nonzero;stroke:none"
             d="m 0,0 c 1.566,-7.038 2.109,-13.945 1.955,-21.396 -1.165,-56.489 -18.646,-117.41 -43.863,-168.513 -25.69,-52.062 -56.907,-93.764 -67.002,-151.716 -0.445,-2.556 -0.507,-8.233 -2.899,-10.215 -0.87,-0.721 -4.788,-2.348 -5.774,-1.708 l -21.391,34.387 c 41.839,63.498 78.107,133.698 96.298,207.922 2.245,9.159 5.272,20.514 6.656,30.869 C -31.333,-45.323 -36.926,-18.254 0,0" /></g><g
           transform="translate(772.2448,633.4333)"
           id="g304"><path
             id="path306"
             style="fill:#343031;fill-opacity:1;fill-rule:nonzero;stroke:none"
             d="m 0,0 c -32.213,7.727 -58.055,-25.16 -73.539,-48.928 -9.517,-14.61 -16.926,-30.712 -26.128,-45.511 -20.792,-33.437 -68.324,-76.462 -102.123,-96.663 -1.908,-1.14 -3.525,0.317 -2.794,-2.456 5.127,-4.856 10.239,-10.019 14.721,-15.492 10.976,-13.401 20.18,-29.053 26.795,-45.063 0.95,-2.299 4.718,-15.358 5.36,-15.897 0.12,-0.101 0.824,0.018 1.161,0.03 0.943,0.032 15.294,6.359 17.383,7.347 53.801,25.441 145.706,88.671 167.139,146.096 9.729,26.067 21.085,70.358 5.751,95.269 C 28.952,-13.511 11.291,-2.54 0,0 m -373.652,113.99 c -1.65,-0.487 -0.869,-0.929 -0.96,-0.96 -0.36,-0.122 -1.094,0.126 -1.439,0 -1.631,-0.591 -0.871,-0.924 -0.96,-0.96 -0.738,-0.298 -1.724,-0.388 -2.879,-0.96 -36.926,-18.253 -31.333,-45.322 -36.02,-80.37 -1.385,-10.355 -4.411,-21.709 -6.656,-30.869 -18.191,-74.223 -54.459,-144.423 -96.298,-207.921 l 21.39,-34.388 c 0.986,-0.639 4.905,0.988 5.775,1.708 28.766,7.199 58.282,-6.36 82.401,-20.988 3.873,-2.349 25.82,-18.875 27.477,-19.11 4.097,-0.581 10.653,0.615 15.472,0.124 38.409,-3.916 70.859,-52.305 107.591,-44.952 2.572,0.515 13.451,5.336 14.585,4.678 1.787,-1.038 -1.244,-2.782 -2.356,-3.447 -42.472,-25.386 -82.224,36.655 -118.245,36.655 h -11.757 c 3.743,-8.04 8.271,-15.767 11.854,-23.902 3.729,-8.468 15.058,-35.587 11.407,-43.297 -0.367,-0.774 -2.262,-2.067 -3.222,-1.901 -2.15,0.373 -1.899,9.527 -2.403,11.621 -3.402,14.141 -20.984,50.344 -31.668,59.56 -17.324,14.942 -55.257,35.887 -77.917,37.705 -3.353,0.269 -22.584,-0.399 -24.117,-2.879 -0.802,-1.297 7.438,-16.593 5.455,-21.068 -1.051,-2.369 -3.982,-1.902 -5.247,0.031 -1.888,2.886 -4.653,14.476 -6.546,18.785 -15.694,35.722 -74.475,95.83 -113.095,104.989 -58.672,13.915 -140.845,-43.848 -108.566,-108.924 14.064,-28.351 33.642,-21.531 60.693,-23.53 21.71,-1.605 45.358,-3.354 59.881,-21.143 11.267,-13.801 23.82,-27.751 34.423,-42.207 0.7,-0.953 0.92,-0.905 0.96,-0.96 4.87,-6.706 12.032,-17.674 15.836,-24.96 0.78,-1.493 0.92,-0.872 0.959,-0.96 0.15,-0.33 0.395,-0.731 0.48,-0.96 0.131,-0.35 0.475,-0.906 0.48,-0.96 0.035,-0.338 0.077,-1.219 0,-1.44 -0.641,-1.831 -3.13,-2.44 -4.459,-0.964 -6.267,8.653 -12.122,17.84 -18.784,26.206 -1.438,1.806 -3.713,4.654 -5.546,5.956 4.663,-23.063 3.031,-47.497 12.075,-69.649 6.321,-15.482 21.39,-30.872 34.362,-41.204 35.417,-28.208 80.321,-41.906 123.981,-23.957 3.074,1.264 8.074,3.843 10.489,6.172 0.314,-0.033 0.645,0.032 0.96,0 0.314,-0.031 0.646,0.035 0.959,0 0.314,-0.034 0.646,0.033 0.96,0 4.756,-4.637 -7.073,-9.523 -10.681,-11.174 -23.197,-10.61 -49.913,-12.339 -74.859,-6.95 -4.465,0.965 -9.052,3.503 -13.312,3.719 4.999,-3.967 10.774,-8.739 16.245,-11.939 8.514,-4.979 24.711,-9.767 31.314,-15.01 1.678,-1.333 2.292,-3.845 -0.301,-4.235 -1.276,-0.191 -21.333,8.45 -23.925,9.649 -21.425,9.918 -26.791,18.898 -43.656,31.454 -5.405,4.025 -12.297,7.17 -17.952,11.045 -2.306,1.58 -10.681,9.335 -12.457,9.654 -9.7,1.743 -29.167,-5.671 -35.14,-13.709 -9.984,-13.436 -10.009,-28.734 -3.56,-43.72 14.854,-34.514 88.323,-53.326 121.936,-59.95 6.426,-1.267 18.51,-4.003 24.6,-3.954 0.632,0.006 3.459,-0.805 4.798,-0.96 38.458,-4.442 103.046,-13.943 135.426,12.025 12.541,10.058 9.494,47.015 9.494,47.015 0,0 -2.531,-0.131 -8.158,-0.48 -0.316,-0.025 -0.642,0.023 -0.959,0 -6.138,-0.438 -12.328,-1.657 -18.458,-1.937 -9.173,-0.418 -21.257,1.823 -29.301,0.99 -6.141,-0.635 -14.551,-4.263 -22.049,-4.825 -2.836,-0.213 -24.773,-0.889 -25.688,0.013 -0.292,0.287 -0.102,3.173 1.203,2.878 l 38.625,3.364 c 0.24,1.095 -0.128,0.774 -0.607,1.089 -2.029,1.333 -8.814,2.875 -12.143,4.602 -2.501,1.296 -15.878,10.342 -11.92,14.045 2.927,2.739 5.174,-1.982 6.332,-2.949 35.047,-29.254 102.548,-6.912 136.868,15.85 41.986,27.847 62.488,76.488 73.291,124.689 2.28,10.169 4.968,17.389 0.54,27.168 -1.399,3.087 -10.322,12.356 -2.539,12.359 1.494,0 2.404,-1.957 3.088,-2.936 0.804,-1.151 0.855,-1.708 0.959,-1.92 1.522,-3.078 2.69,-6.201 3.701,-9.498 0.763,-2.49 0.588,-7.663 2.888,-8.631 42.179,-9.279 88.425,-17.864 131.872,-15.01 16.123,1.059 27.389,5.092 40.53,13.939 0.342,0.231 1.72,0.816 1.919,0.96 1.089,0.793 0.884,0.902 0.96,0.96 25.576,19.552 33.115,53.75 15.679,81.911 -25.718,41.539 -69.604,6.063 -100.994,-4.012 -30.701,-9.853 -64.973,-11.23 -97.517,-11.659 -0.73,-1.25 0.962,-2.956 0.962,-3.12 v -8.88 c -0.974,0.075 -2.032,-0.176 -2.991,0.036 -2.071,0.456 -6.208,17.689 -7.123,20.238 -7.341,20.446 -16.771,40.062 -30.226,57.101 -53.216,67.385 -148.732,73.877 -228.439,63.554 -3.391,3.411 12.517,5.534 14.723,5.918 6.71,1.167 15.818,2.295 22.999,2.914 10.269,0.886 20.548,0.67 30.948,1.447 -1.739,1.027 -0.498,3.532 0.065,5.354 5.02,16.243 15.402,37.349 22.075,53.758 15.642,38.466 45.134,99.072 41.7,140.333 -3.536,42.475 -42.335,64.92 -82.55,53.027 m 63.822,-256.8 c 32.806,-5.477 63.45,-17.871 90.176,-37.319 1.426,-1.038 5.837,-5.699 6.715,-4.881 0.308,0.286 2.886,6.25 3.718,7.53 28.191,43.301 58.28,83.807 80.235,131.082 16.931,36.458 45.195,101.677 21.942,139.068 -14.935,24.017 -56.629,30.85 -80.9,19.88 -34.294,-15.5 -40.426,-64.497 -51.883,-96.085 -9.977,-27.507 -28.569,-56.287 -44.147,-81.101 -10.712,-17.062 -35.007,-58.564 -48.327,-70.45 -0.648,-0.578 -6.964,-4.434 -5.599,-4.846 1.651,-0.5 6.422,0.226 8.648,0.015 6.363,-0.603 13.109,-1.838 19.422,-2.893 m -164.114,28.8 c 1.563,3.038 22.701,50.324 28.059,65.294 8.129,22.714 16.144,49.521 19.896,73.698 3.271,21.072 1.372,45.837 11.248,64.818 22.875,43.967 87.577,49.725 117.843,9.898 25.976,-34.184 11.44,-77.603 -1.917,-113.515 -15.248,-40.997 -34.719,-80.495 -50.695,-121.222 -1.247,-4.835 7.339,-0.165 9.543,1.027 3.875,2.095 9.202,8.133 11.877,11.736 18.224,24.55 39.735,60.757 55.053,87.636 5.468,9.595 11.294,19.996 15.954,29.978 21.063,45.12 26.507,136.904 95.794,132.594 117.49,-7.309 62.359,-133.723 29.413,-196.397 -21.872,-41.609 -51.183,-78.677 -75.739,-118.502 20.915,11.526 40.288,27.941 57.832,44.148 16.451,15.197 31.808,31.045 43.741,50.096 26.289,41.973 59.907,126.86 125.69,92.774 43.777,-22.683 29.388,-80.994 15.485,-118.462 -18.497,-49.849 -83.775,-99.632 -128.232,-126.482 l -47.815,-26.073 c 11.359,0.719 22.94,0.745 34.253,1.971 17.346,1.881 37,6.102 53.159,12.107 31.213,11.597 47.823,30.305 83.418,16.158 3.259,-1.313 7.26,-4.417 8.878,-5.76 29.056,-24.117 22.983,-72.171 -2.065,-99.333 -41.468,-44.968 -181.529,-7.264 -184.36,-6.266 -11.418,-51.909 -31.621,-109.652 -78.586,-139.666 -15.734,-10.055 -34.178,-18.662 -52.425,-23.056 0.038,-2.745 3.245,-4.085 4.724,-6.673 18.964,-33.183 -24.903,-61.805 -52.987,-67.205 -60.765,-11.686 -195.666,9.409 -243.587,50.871 -30.276,26.195 -30.338,76.489 12.937,86.723 1.588,0.376 9.398,0.957 9.714,1.331 0.507,0.599 -9.83,9.745 -11.015,11.171 -22.454,27.034 -20.314,55.119 -25.917,87.328 -3.86,22.189 -5.087,19.214 -18.174,34.993 -5.931,7.151 -7.322,13.56 -17.169,17.89 -35.896,15.784 -83.852,-7.076 -107.482,31.937 -25.815,42.619 -3.9,87.931 35.025,111.456 38.094,23.024 74.004,25.385 112.638,2.031 21.072,-12.738 38.614,-32.566 55.842,-49.864 7.001,11.427 14.436,22.685 21.198,34.263 4.556,7.801 8.211,16.176 13.115,23.829 z" /></g><g
           transform="translate(468.1735,211.5037)"
           id="g308"><path
             id="path310"
             style="fill:#fefefe;fill-opacity:1;fill-rule:nonzero;stroke:none"
             d="m 0,0 c -0.561,-3.789 0.414,-8.787 0,-12.72 -2.565,0.576 -14.225,6.635 -14.256,2.214 C -14.278,-13.765 0,-16.117 0,-17.04 v -11.04 l -8.396,2.447 c -8.118,-4.616 7.767,-5.851 8.37,-6.316 1.396,-1.076 0.437,-20.308 0.967,-23.27 0.476,-2.657 3.513,-4.446 4.354,-2.29 1.429,3.662 -1.765,23.235 -0.972,24.147 0.287,0.331 8.331,-1.122 8.636,-1.436 0.626,-0.647 -0.218,-15.369 -0.004,-18.003 0.262,-3.217 0.639,-12.377 5.297,-8.549 -0.403,3.164 -1.842,24.649 -0.974,25.591 0.248,0.269 6.715,-1.097 6.715,-1.441 v -15.12 c 0,-1.563 4.319,-0.267 4.319,0.24 v 14.4 c 2.389,0.077 15.579,-3.789 14.918,0.718 -0.518,3.532 -14.918,2.332 -14.918,3.122 v 9.6 c 1.801,-0.636 13.262,-3.364 13.944,-1.616 2.218,5.683 -10.402,3.657 -12.913,5.044 -1.366,0.754 1.461,14.236 0.196,15.796 -4.942,6.096 -4.301,-12.381 -4.655,-13.155 -0.783,-1.713 -7.422,0.466 -7.625,0.98 -1.4,3.526 4.325,19.755 -2.004,18.359 -2.689,-0.593 -0.736,-15.704 -2.304,-17.728 -0.272,-0.35 -8.183,2.488 -8.395,2.878 C 3.383,-11.517 5.147,3.386 4.284,4.043 1.949,5.821 0.273,1.84 0,0 m -69.581,535.92 c 40.215,11.893 79.014,-10.552 82.55,-53.027 3.435,-41.261 -26.057,-101.867 -41.7,-140.333 -6.673,-16.409 -17.055,-37.515 -22.074,-53.758 -0.563,-1.822 -1.805,-4.327 -0.065,-5.355 -10.401,-0.776 -20.679,-0.56 -30.948,-1.446 -7.182,-0.619 -16.289,-1.748 -23,-2.914 -2.206,-0.384 -18.114,-2.507 -14.723,-5.919 79.707,10.324 175.223,3.832 228.439,-63.554 13.456,-17.038 22.885,-36.655 30.226,-57.1 0.916,-2.549 5.052,-19.783 7.123,-20.239 0.959,-0.211 2.017,0.039 2.992,-0.035 v 8.88 c 0,0.163 -1.693,1.87 -0.962,3.119 32.543,0.429 66.815,1.806 97.516,11.66 31.39,10.074 75.276,45.55 100.994,4.012 17.436,-28.162 9.898,-62.36 -15.679,-81.911 l -0.96,-0.96 c -0.199,-0.145 -1.577,-0.729 -1.919,-0.96 -2.036,-1.485 -3.691,0.808 -4.192,0.936 -32.864,8.368 -55.624,15.639 -89.595,19.26 -18.326,1.953 -65.731,6.766 -80.749,1.904 -0.754,-0.244 -1.998,0.217 -2.71,-0.084 -1.619,-0.684 0.199,-3.114 -1.744,-2.816 -0.105,0.211 -2.553,4.856 -4.047,4.855 -7.783,-0.002 1.14,-9.271 2.538,-12.359 4.428,-9.779 1.74,-16.998 -0.539,-27.168 -10.803,-48.2 -31.306,-96.842 -73.292,-124.688 -0.38,1.079 -1.053,1.031 -2.012,0.854 -31.437,-5.821 -99.734,-20.847 -127.383,-5.497 -9.452,5.247 -9.912,17.662 -21.052,19.034 -3.39,0.418 -7.954,-0.334 -11.268,0.009 -0.314,0.033 -0.646,-0.034 -0.959,0 0.256,1.539 -1.276,1.377 -0.96,0 -0.314,0.032 -0.646,-0.033 -0.96,0 -54.488,5.755 -107.216,50.595 -143.168,89.59 -2.392,2.594 -5.896,6.32 -8.95,7.85 0.078,0.22 0.035,1.102 0,1.44 0.85,0.794 0.633,1.12 -0.479,0.96 -0.086,0.229 -0.331,0.63 -0.48,0.96 0.149,0.961 0.003,1.109 -0.96,0.96 -3.804,7.285 -10.966,18.253 -15.836,24.96 0.352,1.168 -0.942,0.894 -0.959,0.96 -0.305,1.178 0.304,3.165 -0.028,4.445 -10.199,39.278 -19.33,55.6 -59.823,63.693 -26.385,5.274 -56.863,13.646 -82.057,17.76 -3.982,0.651 -9.023,0.911 -13.089,0.982 -32.28,65.075 49.893,122.839 108.565,108.924 38.62,-9.159 97.402,-69.267 113.096,-104.99 1.892,-4.308 4.657,-15.899 6.545,-18.784 1.265,-1.934 4.197,-2.4 5.247,-0.031 1.984,4.474 -6.256,19.77 -5.454,21.068 1.533,2.48 20.764,3.148 24.116,2.879 22.66,-1.818 60.593,-22.763 77.917,-37.705 10.685,-9.216 28.266,-45.42 31.668,-59.56 0.504,-2.094 0.253,-11.248 2.403,-11.621 0.96,-0.166 2.855,1.127 3.222,1.901 3.651,7.71 -7.677,34.829 -11.407,43.296 -3.583,8.136 -8.11,15.863 -11.854,23.903 h 11.757 c 36.021,0 75.773,-62.042 118.246,-36.656 1.112,0.665 4.142,2.41 2.355,3.447 -1.134,0.658 -12.012,-4.163 -14.584,-4.677 -36.733,-7.353 -69.183,41.035 -107.591,44.951 -4.819,0.492 -11.376,-0.704 -15.473,-0.123 -1.657,0.235 -23.604,16.761 -27.476,19.11 -24.119,14.628 -53.636,28.187 -82.402,20.988 2.392,1.982 2.454,7.659 2.899,10.215 10.095,57.952 41.312,99.654 67.002,151.716 25.217,51.103 42.698,112.024 43.863,168.513 0.154,7.451 -0.389,14.358 -1.955,21.396 1.155,0.571 2.141,0.661 2.879,0.96 1.017,-0.117 1.077,-0.059 0.96,0.96 0.345,0.125 1.079,-0.122 1.44,0 1.016,-0.117 1.077,-0.058 0.959,0.96" /></g><g
           transform="translate(314.0095,59.9369)"
           id="g312"><path
             id="path314"
             style="fill:#e8e8e8;fill-opacity:1;fill-rule:nonzero;stroke:none"
             d="m 0,0 c -33.613,6.624 -107.081,26.156 -121.936,60.671 -6.449,14.985 -6.423,30.283 3.56,43.719 5.974,8.038 25.441,15.452 35.14,13.709 1.776,-0.319 10.151,-8.073 12.457,-9.653 5.656,-3.875 12.547,-7.021 17.953,-11.045 16.864,-12.557 22.23,-21.537 43.655,-31.454 2.592,-1.2 22.65,-9.841 23.925,-9.649 2.594,0.389 1.979,2.902 0.301,4.234 -6.603,5.244 -22.799,10.031 -31.313,15.01 -5.472,3.2 -11.246,7.973 -16.246,11.939 4.26,-0.216 8.848,-2.754 13.312,-3.718 24.946,-5.389 51.662,-3.661 74.86,6.95 3.607,1.65 15.436,6.537 10.68,11.174 3.314,-0.343 7.878,0.408 11.268,-0.009 11.14,-1.372 11.6,-13.787 21.052,-19.035 27.649,-15.349 95.946,-0.324 127.383,5.497 0.959,0.178 1.632,0.225 2.012,-0.853 C 193.744,64.725 126.243,42.383 91.196,71.636 c -1.159,0.967 -3.405,5.689 -6.333,2.949 -3.957,-3.703 9.419,-12.748 11.92,-14.045 3.33,-1.727 10.114,-3.268 12.143,-4.601 0.479,-0.315 0.847,0.006 0.608,-1.089 L 70.908,51.486 c -1.305,0.295 -1.494,-2.592 -1.203,-2.879 0.916,-0.901 22.853,-0.226 25.688,-0.013 7.498,0.562 15.908,4.19 22.049,4.826 8.044,0.833 20.128,-1.408 29.301,-0.99 6.13,0.279 12.321,1.498 18.458,1.937 -3.394,-2.72 -8.213,-4.309 -12.349,-5.738 C 131.927,41.397 108.375,35.577 89.019,30.882 71.919,26.735 53.342,25.967 39.809,13.57 L 31.22,-4.405 C 29.881,-4.25 6.427,-1.267 0,0" /></g><g
           transform="translate(377.4787,161.8237)"
           id="g316"><path
             id="path318"
             style="fill:#e8e8e8;fill-opacity:1;fill-rule:nonzero;stroke:none"
             d="m 0,0 c -2.415,-2.329 -7.415,-4.909 -10.489,-6.172 -43.659,-17.95 -88.564,-4.252 -123.981,23.957 -12.971,10.332 -28.041,25.722 -34.362,41.203 -9.044,22.152 -7.411,46.587 -12.075,69.649 1.833,-1.301 4.108,-4.15 5.546,-5.956 6.662,-8.365 12.517,-17.552 18.784,-26.205 1.329,-1.476 3.818,-0.867 4.459,0.964 3.054,-1.53 6.558,-5.256 8.95,-7.85 C -107.216,50.595 -54.488,5.755 0,0" /></g><g
           transform="translate(488.3279,114.7837)"
           id="g320"><path
             id="path322"
             style="fill:#fefefe;fill-opacity:1;fill-rule:nonzero;stroke:none"
             d="m 0,0 c 16.997,-12.588 3.047,-36.957 -9.494,-47.015 -32.38,-25.969 -96.968,-16.467 -135.426,-12.025 l 10.411,17.764 c 13.532,12.396 32.11,13.164 49.209,17.311 19.356,4.695 42.909,10.515 63.833,17.747 4.136,1.429 8.956,3.018 12.35,5.738 C -8.8,-0.457 0,0 0,0" /></g><g
           transform="translate(51.6492,376.3837)"
           id="g324"><path
             id="path326"
             style="fill:#e8e8e8;fill-opacity:1;fill-rule:nonzero;stroke:none"
             d="m 0,0 c 4.067,-0.071 9.107,-0.331 13.09,-0.982 25.193,-4.114 55.672,-12.486 82.056,-17.76 40.493,-8.093 49.624,-24.415 59.823,-63.693 0.332,-1.28 -0.277,-3.267 0.028,-4.445 0.017,-0.066 1.311,0.208 0.96,-0.96 -0.04,0.055 -0.26,0.006 -0.96,0.96 -10.603,14.455 -23.156,28.405 -34.424,42.207 -14.522,17.789 -38.17,19.537 -59.881,21.142 C 33.642,-21.531 14.063,-28.352 0,0" /></g><g
           transform="translate(492.6148,178.6588)"
           id="g328"><path
             id="path330"
             style="fill:#343031;fill-opacity:1;fill-rule:nonzero;stroke:none"
             d="m 0,0 c 0.454,0.36 0.831,8.881 0.304,9.597 -0.435,0.592 -6.547,1.91 -7.502,1.197 C -7.777,10.361 -8.511,2.178 -7.918,1.373 -7.484,0.784 -0.727,-0.576 0,0 m -20.123,14.845 c -0.37,-0.441 0,-9.921 0,-11.52 0,-0.47 9.118,-1.968 9.118,-0.72 v 9.12 c 0,0.813 -8.795,3.504 -9.118,3.12 m -4.318,18 c 0.272,1.84 1.948,5.821 4.284,4.043 0.863,-0.657 -0.901,-15.56 0.272,-17.725 0.212,-0.391 8.123,-3.229 8.394,-2.878 1.569,2.024 -0.385,17.135 2.304,17.728 6.33,1.396 0.605,-14.834 2.004,-18.359 0.204,-0.514 6.842,-2.693 7.626,-0.98 C 0.797,15.448 0.156,33.925 5.098,27.829 6.362,26.269 3.535,12.787 4.901,12.032 7.412,10.646 20.033,12.671 17.815,6.989 17.132,5.241 5.672,7.968 3.871,8.605 v -9.6 c 0,-0.79 14.4,0.41 14.918,-3.122 C 19.45,-8.624 6.26,-4.758 3.871,-4.835 v -14.4 c 0,-0.507 -4.319,-1.803 -4.319,-0.24 v 15.12 c 0,0.343 -6.467,1.71 -6.715,1.441 -0.868,-0.942 0.571,-22.428 0.973,-25.591 -4.657,-3.828 -5.034,5.332 -5.296,8.549 -0.214,2.634 0.63,17.356 0.003,18.003 -0.304,0.314 -8.348,1.766 -8.635,1.436 -0.793,-0.912 2.4,-20.485 0.972,-24.147 -0.841,-2.156 -3.879,-0.367 -4.354,2.29 -0.53,2.961 0.429,22.194 -0.967,23.27 -0.603,0.465 -16.489,1.7 -8.37,6.316 l 8.396,-2.447 v 11.04 c 0,0.923 -14.279,3.275 -14.256,6.534 0.031,4.421 11.691,-1.638 14.256,-2.214 0.414,3.933 -0.562,8.931 0,12.72" /></g><g
           transform="translate(472.4923,193.5037)"
           id="g332"><path
             id="path334"
             style="fill:#fefefe;fill-opacity:1;fill-rule:nonzero;stroke:none"
             d="m 0,0 c 0.323,0.384 9.117,-2.307 9.117,-3.12 v -9.12 C 9.117,-13.488 0,-11.99 0,-11.52 0,-9.921 -0.371,-0.441 0,0" /></g><g
           transform="translate(492.6148,178.6588)"
           id="g336"><path
             id="path338"
             style="fill:#e8e8e8;fill-opacity:1;fill-rule:nonzero;stroke:none"
             d="m 0,0 c -0.727,-0.576 -7.484,0.784 -7.918,1.373 -0.593,0.805 0.141,8.988 0.72,9.421 0.955,0.713 7.067,-0.605 7.502,-1.197 C 0.831,8.881 0.454,0.36 0,0" /></g><g
           transform="translate(263.1877,680.6273)"
           id="g340"><path
             id="path342"
             style="fill:#343031;fill-opacity:1;fill-rule:nonzero;stroke:none"
             d="m 0,0 c 0,-4.877 -3.953,-8.831 -8.828,-8.831 -4.876,0 -8.829,3.954 -8.829,8.831 0,4.877 3.953,8.831 8.829,8.831 C -3.953,8.831 0,4.877 0,0" /></g><g
           transform="translate(187.1141,548.9785)"
           id="g344"><path
             id="path346"
             style="fill:#343031;fill-opacity:1;fill-rule:nonzero;stroke:none"
             d="m 0,0 c 0,-4.481 -3.632,-8.114 -8.112,-8.114 -4.479,0 -8.111,3.633 -8.111,8.114 0,4.481 3.632,8.114 8.111,8.114 C -3.632,8.114 0,4.481 0,0" /></g><g
           transform="translate(260.1853,582.566)"
           id="g348"><path
             id="path350"
             style="fill:#343031;fill-opacity:1;fill-rule:nonzero;stroke:none"
             d="M 0,0 C 4.328,-2.643 2.641,-11.956 -3.366,-12.302 -15.939,-13.026 -11.719,7.157 0,0" /></g><g
           transform="translate(77.7829,593.1166)"
           id="g352"><path
             id="path354"
             style="fill:#343031;fill-opacity:1;fill-rule:nonzero;stroke:none"
             d="M 0,0 C -9.231,-4.303 -12.504,9.463 -4.667,11.151 3.228,12.851 6.36,2.965 0,0" /></g><g
           transform="translate(193.0312,720.3641)"
           id="g356"><path
             id="path358"
             style="fill:#343031;fill-opacity:1;fill-rule:nonzero;stroke:none"
             d="M 0,0 C 4.202,-3.453 1.018,-10.341 -5.309,-8.903 -12.261,-7.323 -6.971,5.729 0,0" /></g><g
           transform="translate(96.553,697.2875)"
           id="g360"><path
             id="path362"
             style="fill:#343031;fill-opacity:1;fill-rule:nonzero;stroke:none"
             d="M 0,0 C 7.318,-4.409 -4.954,-14.14 -7.685,-5.518 -9.119,-0.991 -4.391,2.645 0,0" /></g><g
           transform="translate(96.2768,628.3837)"
           id="g364"><path
             id="path366"
             style="fill:#e8e8e8;fill-opacity:1;fill-rule:nonzero;stroke:none"
             d="m 0,0 c 0.385,-1.313 -0.931,-0.898 -0.96,-0.96 -0.739,-1.601 0.044,-2.735 -0.241,-3.836 -3.482,-13.452 -4.029,-19.818 4.726,-31.996 1.597,-2.222 10.606,-8.257 10.869,-9.531 0.098,-0.476 -0.911,-0.124 -0.952,-0.239 -0.788,-2.212 3.206,0 3.639,0.008 0.955,0.018 2.586,-1.408 3.073,-0.96 0.308,0.283 -3.882,4.826 -1.916,7.671 l 1.913,-2.874 c 0.338,2.681 -0.956,4.229 0.963,5.757 -0.412,-8.27 1.323,-18.174 11.273,-18.271 1.081,-0.011 4.863,1.179 5.039,0.992 0.228,-0.243 0.513,-4.024 2.883,-5.761 -2.607,-1.038 -4.245,1.938 -5.637,2.323 -0.89,0.246 -1.795,-0.446 -2.637,-0.274 -1.013,0.207 -5.346,2.057 -4.683,0.351 0.025,-0.063 1.344,0.361 0.96,-0.96 -0.87,0.711 -0.79,0.808 -0.96,0.96 -2.154,1.932 -7.678,9.293 -8.287,9.447 -2.99,0.757 -6.193,-1.077 -9.736,-0.832 -11.368,0.784 -17.892,24.148 -17.034,33.412 0.593,6.405 3.115,10.096 6.745,14.613 0.743,0.924 0.771,0.754 0.96,0.96" /></g><g
           transform="translate(177.6651,580.4962)"
           id="g368"><path
             id="path370"
             style="fill:#e8e8e8;fill-opacity:1;fill-rule:nonzero;stroke:none"
             d="m 0,0 c -1.077,-7.979 -15.939,-18.878 -23.064,-19.813 -5.262,-0.69 -14.526,-0.1 -18.975,2.901 3.126,0.378 2.477,0.03 4.531,-0.036 20.227,-0.65 12.753,1.351 25.37,9.947 0.508,0.346 4.704,1.545 5.918,2.257 C -4.77,-3.893 -2.886,0.397 0,0" /></g><g
           transform="translate(133.7064,564.5438)"
           id="g372"><path
             id="path374"
             style="fill:#e8e8e8;fill-opacity:1;fill-rule:nonzero;stroke:none"
             d="M 0,0 C 1.017,0.117 1.077,0.058 0.96,-0.96 -0.808,-0.694 0.262,-0.088 0,0" /></g><g
           transform="translate(131.307,565.5037)"
           id="g376"><path
             id="path378"
             style="fill:#e8e8e8;fill-opacity:1;fill-rule:nonzero;stroke:none"
             d="M 0,0 C 1.012,0.123 1.081,0.053 0.96,-0.96 -0.646,-0.273 0.085,-0.044 0,0" /></g><g
           transform="translate(206.6461,582.3037)"
           id="g380"><path
             id="path382"
             style="fill:#343031;fill-opacity:1;fill-rule:nonzero;stroke:none"
             d="m 0,0 c -1.013,0.314 -1.995,3.214 0.128,4.176 0.9,0.407 6.987,-2.759 9.415,0.91 5.513,8.33 -12.783,3.599 -10.278,8.83 1.144,2.389 8.268,1.106 10.594,1.422 7.2,0.979 11.62,7.527 10.736,14.62 -0.599,4.801 -4.321,3.436 -4.81,6.313 -0.782,4.597 6.669,0.145 8.045,-3.3 3.354,-8.394 -1.35,-15.405 -8.166,-19.835 -0.57,-0.37 -2.587,-0.495 -2.705,-0.662 C 12.654,12.041 15.689,6.202 12.624,2.394 12.195,1.862 9.185,0 8.878,0 7.001,0 1.245,-0.385 0,0" /></g><g
           transform="translate(196.3846,603.225)"
           id="g384"><path
             id="path386"
             style="fill:#343031;fill-opacity:1;fill-rule:nonzero;stroke:none"
             d="M 0,0 C 3.994,-1.969 1.928,-10.138 -1.138,-10.813 -13.253,-13.479 -11.732,5.783 0,0" /></g><g
           transform="translate(183.4394,660.7144)"
           id="g388"><path
             id="path390"
             style="fill:#343031;fill-opacity:1;fill-rule:nonzero;stroke:none"
             d="M 0,0 C -4.673,-8.163 -15.805,2.414 -8.55,7.465 -2.863,11.425 2.935,5.126 0,0" /></g><g
           transform="translate(219.9245,684.3693)"
           id="g392"><path
             id="path394"
             style="fill:#343031;fill-opacity:1;fill-rule:nonzero;stroke:none"
             d="M 0,0 C 3.345,-0.797 4.556,-7.252 1.417,-9.725 -7.437,-16.701 -12.612,3.006 0,0" /></g><g
           transform="translate(201.2369,627.2714)"
           id="g396"><path
             id="path398"
             style="fill:#343031;fill-opacity:1;fill-rule:nonzero;stroke:none"
             d="M 0,0 C 4.434,-1.167 3.358,-11.609 -3.339,-10.804 -10.093,-9.993 -10.221,2.69 0,0" /></g><g
           transform="translate(164.7174,604.5629)"
           id="g400"><path
             id="path402"
             style="fill:#343031;fill-opacity:1;fill-rule:nonzero;stroke:none"
             d="M 0,0 C -4.879,-3.723 -11.23,3.023 -7.342,7.827 -2.413,13.917 6.034,4.604 0,0" /></g><g
           transform="translate(138.7335,590.6876)"
           id="g404"><path
             id="path406"
             style="fill:#343031;fill-opacity:1;fill-rule:nonzero;stroke:none"
             d="M 0,0 C 4.476,-7.596 -7.053,-10.926 -9.07,-4.536 -10.79,0.913 -2.904,4.928 0,0" /></g><g
           transform="translate(206.463,655.5434)"
           id="g408"><path
             id="path410"
             style="fill:#343031;fill-opacity:1;fill-rule:nonzero;stroke:none"
             d="M 0,0 C 3.777,-1.819 2.786,-10.058 -4.825,-8.882 -10.698,-7.974 -8.704,4.193 0,0" /></g><g
           transform="translate(146.8904,661.7272)"
           id="g412"><path
             id="path414"
             style="fill:#343031;fill-opacity:1;fill-rule:nonzero;stroke:none"
             d="M 0,0 C 3.728,-5.956 -8.718,-9.669 -7.46,-0.405 -7.017,2.854 -1.939,3.097 0,0" /></g><g
           transform="translate(173.4024,590.3053)"
           id="g416"><path
             id="path418"
             style="fill:#343031;fill-opacity:1;fill-rule:nonzero;stroke:none"
             d="M 0,0 C 2.296,-0.691 1.774,-6.332 -0.779,-6.835 -7.608,-8.181 -7.609,2.291 0,0" /></g><g
           transform="translate(181.5036,636.3348)"
           id="g420"><path
             id="path422"
             style="fill:#343031;fill-opacity:1;fill-rule:nonzero;stroke:none"
             d="M 0,0 C 2.445,-1.28 1.78,-7.439 -3.201,-6.324 -8.81,-5.069 -5.173,2.708 0,0" /></g><g
           transform="translate(190.4442,574.7271)"
           id="g424"><path
             id="path426"
             style="fill:#343031;fill-opacity:1;fill-rule:nonzero;stroke:none"
             d="M 0,0 C -1.268,1.859 2.692,4 3.999,2.33 5.75,0.092 1.764,-2.586 0,0" /></g><g
           transform="translate(190.4442,574.7271)"
           id="g428"><path
             id="path430"
             style="fill:#fefefe;fill-opacity:1;fill-rule:nonzero;stroke:none"
             d="M 0,0 C 1.764,-2.586 5.75,0.092 3.999,2.33 2.692,4 -1.268,1.859 0,0 m -17.042,15.578 c -7.609,2.291 -7.608,-8.181 -0.779,-6.835 2.553,0.503 3.075,6.144 0.779,6.835 m -34.669,0.383 c -2.904,4.928 -10.789,0.913 -9.069,-4.536 2.016,-6.39 13.546,-3.06 9.069,4.536 M 5.94,28.498 C -5.792,34.281 -7.312,15.019 4.802,17.685 7.868,18.36 9.934,26.529 5.94,28.498 m -31.667,1.338 c 6.034,4.604 -2.413,13.917 -7.342,7.827 -3.888,-4.804 2.463,-11.55 7.342,-7.827 M 16.202,7.577 c 1.245,-0.386 7.001,0 8.877,0 0.308,0 3.318,1.861 3.747,2.394 3.065,3.808 0.029,9.646 0.335,10.079 0.118,0.167 2.135,0.293 2.705,0.663 6.816,4.429 11.52,11.441 8.166,19.834 -1.377,3.446 -8.827,7.898 -8.045,3.301 0.489,-2.877 4.211,-1.512 4.81,-6.313 0.884,-7.093 -3.536,-13.641 -10.736,-14.62 -2.326,-0.317 -9.45,0.967 -10.594,-1.423 -2.505,-5.23 15.791,-0.499 10.278,-8.83 C 23.317,8.994 17.23,12.159 16.33,11.752 14.207,10.791 15.189,7.89 16.202,7.577 M 10.793,52.544 C 0.572,55.234 0.699,42.551 7.454,41.74 c 6.697,-0.804 7.773,9.637 3.339,10.804 m -69.771,-0.87 c 0,2.458 -1.992,4.45 -4.449,4.45 -2.456,0 -4.448,-1.992 -4.448,-4.45 0,-2.457 1.992,-4.449 4.448,-4.449 2.457,0 4.449,1.992 4.449,4.449 m 50.037,9.934 c -5.173,2.708 -8.809,-5.069 -3.201,-6.324 4.982,-1.115 5.647,5.044 3.201,6.324 m -21.138,9.103 c -8.602,6.33 -13.251,-8.392 -4.234,-9.25 5.485,-0.521 7.759,6.655 4.234,9.25 m 46.098,10.105 c -8.704,4.193 -10.698,-7.974 -4.825,-8.882 7.61,-1.176 8.602,7.063 4.825,8.882 M -43.554,87 c -1.938,3.098 -7.017,2.854 -7.46,-0.405 -1.258,-9.264 11.188,-5.551 7.46,0.405 m 36.549,-1.013 c 2.935,5.126 -2.863,11.426 -8.55,7.466 -7.255,-5.052 3.877,-15.629 8.55,-7.466 m -43.974,12.79 c -4.624,7.656 -18.879,2.121 -21.782,-5.333 -1.228,-3.152 -1.46,-5.791 -1.282,-9.183 l -3.365,-8.466 c -0.932,1.221 -5.88,-3.88 -5.723,-3.898 -0.55,-1.592 4.102,-1.426 3.36,0 0.307,0.038 2.893,2.572 2.879,2.88 1.727,0.452 0.604,-1.453 0.96,-1.924 0.086,-0.114 0.874,0.105 0.959,0.004 -0.127,-1.31 -1.579,-0.927 -0.817,-2.755 1.133,-2.719 3.768,-1.463 4.176,-1.565 0.15,-0.038 0.326,0.03 0.48,0 0.196,-0.038 -0.75,-0.826 0.96,-0.96 0.401,-0.032 1.094,-0.073 1.439,0 0.549,0.116 1.698,0.205 1.938,0.81 1.005,2.538 -0.855,2.424 -0.978,2.55 -1.38,1.412 -4.315,2.344 -3.764,5.398 0.83,4.59 8.127,0.756 8.554,3.568 0.482,3.176 -10.553,2.743 -2.515,12.119 1.506,1.757 2.28,2.579 4.443,2.915 1.317,0.204 3.275,-0.695 2.88,0.96 0.788,0.028 1.612,0.037 2.399,0 -0.662,-1.825 3.211,-0.782 3.839,-0.96 0.271,-0.077 0.702,0.081 0.96,0 0.064,-0.021 -0.216,-0.201 0.959,-0.96 0.057,-0.037 -0.009,-0.263 0.96,-0.96 0.153,-0.111 0.676,-3.04 2.399,-0.48 0.717,1.064 1.101,2.053 0.96,3.36 -0.192,1.775 -0.666,0.643 -0.96,0.96 -0.074,0.08 -0.384,-0.079 -0.48,0 -0.286,0.235 0.694,0.183 -0.959,0.96 -0.204,0.095 -0.689,-0.084 -0.96,0 -0.115,0.035 0.89,0.582 -1.44,0.96 -0.155,0.025 -0.323,-0.022 -0.479,0 m 80.459,10.865 c -12.612,3.006 -7.437,-16.701 1.417,-9.725 3.139,2.474 1.929,8.928 -1.417,9.725 m -31.033,-3.665 c -1.068,4.02 4.672,0.232 4.801,2.876 -2.736,0.066 -5.053,2.919 -5.754,-0.952 -0.112,12.378 -23.61,13.994 -28.151,5.586 -1.17,-2.166 -1.933,-7.628 0.792,-8.47 0.201,-0.062 0.676,-0.012 0.959,0 0.08,-2.11 1.342,-0.743 1.92,0.48 0.767,1.625 0.205,2.904 2.523,4.468 7.571,5.108 17.654,1.911 19.512,-7.143 0.428,-2.084 -1.289,-5.865 1.264,-6.91 1.409,-0.576 4.636,11.989 8.852,4.785 0.832,-1.422 0.939,-0.867 0.96,-0.96 0.109,-0.507 0.091,-2.329 0,-2.88 -0.029,-0.174 0.694,0.743 0.48,-0.96 -0.069,-0.545 -1.544,-1.921 -1.44,-2.4 0.061,-0.284 -0.103,-0.835 0.002,-0.959 0.096,-0.114 0.703,0.084 0.958,-10e-4 0.158,-0.053 0.745,-0.038 0.959,0 1.692,0.296 0.689,0.764 0.96,0.96 0.886,0.638 0.614,0.779 0.96,1.44 0.287,0.548 0.575,-0.937 0.96,1.92 0.105,0.782 0.056,2.054 0,2.88 -0.033,0.482 0.935,2.131 -0.96,1.92 -0.056,0.296 -0.354,0.504 -0.422,0.779 -0.444,1.795 -0.116,0.768 -0.538,1.141 -0.184,0.608 -0.153,1.898 -1.123,2.237 -0.742,0.259 -1.246,-0.062 -1.845,0.011 -0.088,0.066 0.459,0.955 -0.594,1.157 -0.462,0.088 -5.992,0.545 -5.555,-1.005 -0.157,0.017 -0.328,-0.03 -0.48,0 m -48.608,16.657 c -2.875,2.929 -7.51,-1.301 -5.171,-4.933 2.4,-3.729 8.759,1.277 5.171,4.933 m 27.494,5.903 c 0.156,-0.023 2.765,0.527 2.879,-1.92 0.875,-0.641 3.925,-3.753 4.203,-3.811 4.937,-1.03 7.933,2.459 13.186,-1.009 1.96,-1.293 3.226,-8.727 4.049,-9.119 1.2,-0.571 10.428,5.638 13.463,6.148 10.201,1.716 26.748,-6.979 27.021,-18.382 0.142,-5.989 -7.25,-15.658 -6.254,-18.594 1.164,-3.432 7.382,2.558 10.93,0.981 0.578,-0.256 4.041,-5.815 3.77,-7.117 -0.717,-3.445 -9.981,-0.082 -8.308,-5.605 0.487,-1.609 7.002,-1.998 9.022,-2.711 C 61.674,63.737 65.91,56.186 62.484,45.042 59.434,35.116 46.27,34.908 45.073,32.467 42.749,27.731 53.939,28.16 53.115,19.37 52.933,17.439 48.883,8.875 46.482,10.031 c -0.401,0.193 -3.448,8.48 -6.046,3.789 -0.546,-0.986 1.179,-12.355 0.682,-15.564 -1.085,-7.004 -10.766,-8.371 -16.545,-7.515 -1.426,0.211 -5.655,2.994 -7.613,2.909 -2.38,-0.104 -4.892,-7.427 -11.524,-7.698 -6.138,-0.25 -15.591,2.133 -15.58,9.786 0.004,2.746 4.02,12.59 1.014,13.247 -2.24,0.49 -3.137,-1.597 -3.94,-3.328 -1.406,0.17 -4.48,-3.781 -5.929,-4.631 -1.214,-0.712 -5.41,-1.912 -5.918,-2.258 -12.617,-8.596 -5.144,-10.596 -25.37,-9.947 -2.054,0.066 -1.405,0.414 -4.531,0.036 -0.274,-0.034 -0.692,-0.041 -0.96,0 -1.265,0.316 -0.248,0.433 -1.265,0.316 -0.365,0.121 -0.827,0.512 -1.134,0.644 0.121,1.012 0.052,1.083 -0.96,0.96 -3.224,1.673 -3.912,2.026 -6.718,4.32 0.383,1.321 -0.935,0.896 -0.96,0.96 -0.663,1.706 3.669,-0.145 4.683,-0.352 0.842,-0.171 1.746,0.521 2.637,0.274 1.391,-0.384 3.03,-3.36 5.636,-2.322 4.25,-3.114 11.014,-1.496 13.626,2.929 1.136,1.925 1.871,4.993 -1.331,5.242 -0.893,0.069 -1.728,-6.761 -8.474,-5.535 -9.694,1.763 6.867,10.202 4.338,12.725 -2.045,2.04 -11.961,-8.362 -18.357,-7.066 -6.955,1.409 -3.454,19.156 -8.996,14.745 -1.92,-1.528 -0.626,-3.076 -0.963,-5.757 l -1.913,2.874 c -1.966,-2.845 2.223,-7.388 1.916,-7.671 -0.487,-0.449 -2.118,0.978 -3.073,0.96 -0.433,-0.008 -4.427,-2.221 -3.639,-0.008 0.041,0.115 1.05,-0.237 0.951,0.239 -0.263,1.274 -9.271,7.309 -10.868,9.531 -8.756,12.177 -8.208,18.544 -4.726,31.996 0.285,1.101 -0.499,2.234 0.241,3.836 0.028,0.061 1.344,-0.353 0.96,0.96 1.184,1.294 1.988,2.209 3.359,3.36 1.688,-0.507 -1.393,-3.296 -1.775,-5.185 -1.001,-4.946 2.247,-9.013 2.773,-12.802 0.366,-2.63 -2.31,-5.179 0.109,-10.202 1.832,-3.803 10.224,-7.178 12.809,-3.971 3.019,3.747 -1.961,2.34 -3.701,3.504 -1.344,0.899 -3.534,7.709 -1.818,8.502 0.436,0.202 8.17,-5.906 4.495,1.505 -1.081,2.18 -3.74,1.921 -5.247,3.016 -2.987,2.169 -3.356,6.682 -2.701,9.972 0.549,2.762 7.05,6.61 5.133,8.541 -1.334,1.345 -4.304,-1.177 -5.279,-1.92 -0.954,-0.729 -0.299,-0.128 -0.959,-0.96 -1.655,0.245 -0.734,0.237 -0.96,1.92 -0.021,0.156 0.016,0.321 0,0.48 2.004,0.085 2.004,2.315 0,2.4 -0.019,0.317 0.026,0.643 0,0.96 -0.4,4.827 -1.673,11.88 -0.929,16.439 0.504,3.093 6.467,10.387 8.127,14.281 0.59,0.284 1.231,-0.653 0.96,1.44 0.229,0.086 0.673,-0.071 0.959,0 1.091,0.269 3.974,0.525 4.522,0.908 0.514,0.359 0.227,0.98 0.277,1.012 0.275,0.066 0.818,-0.112 0.954,0.006 0.13,0.114 -0.083,0.72 0.006,0.954 1.077,0.803 0.205,-0.388 0.927,2.889 0.069,0.311 -0.091,0.732 -0.073,1.049 5.216,1.486 6.864,10.467 9.38,14.611 7.433,12.241 27.267,14.017 40.152,12.171" /></g><g
           transform="translate(118.8305,676.3837)"
           id="g432"><path
             id="path434"
             style="fill:#e8e8e8;fill-opacity:1;fill-rule:nonzero;stroke:none"
             d="m 0,0 c 0.653,11.763 5.095,21.87 15.888,27.546 8.641,4.545 27.301,6.537 34.885,-0.981 C 37.889,28.412 16.227,26.95 8.795,14.709 6.279,10.566 5.217,1.486 0,0" /></g><g
           transform="translate(104.4345,632.7037)"
           id="g436"><path
             id="path438"
             style="fill:#e8e8e8;fill-opacity:1;fill-rule:nonzero;stroke:none"
             d="m 0,0 c 0.123,-0.999 0.046,-1.109 -0.96,-0.96 -4.161,-5.248 -3.328,-10.22 -0.892,-15.899 0.297,-0.692 1.72,-1.31 1.833,-1.74 0.184,-0.7 -1.094,-2.598 -0.965,-4.71 0.314,-5.111 4.005,-12.091 10.101,-9.811 -2.584,-3.207 -10.976,0.168 -12.808,3.971 -2.419,5.023 0.257,7.572 -0.109,10.202 -0.527,3.789 -3.775,7.856 -2.774,12.802 0.383,1.889 3.463,4.679 1.775,5.185 0.698,0.586 1.215,1.913 2.88,1.92 0.226,-1.683 -0.696,-1.675 0.959,-1.92" /></g><g
           transform="translate(110.6728,669.6638)"
           id="g440"><path
             id="path442"
             style="fill:#e8e8e8;fill-opacity:1;fill-rule:nonzero;stroke:none"
             d="m 0,0 c 0.271,-2.093 -0.369,-1.155 -0.96,-1.44 -1.66,-3.894 -7.622,-11.188 -8.127,-14.28 -0.744,-4.56 0.53,-11.613 0.929,-16.44 -10.656,8.868 -2.956,25.825 7.198,30.72 C -0.437,-0.213 -1.782,-0.673 0,0" /></g><g
           transform="translate(118.8305,675.4238)"
           id="g444"><path
             id="path446"
             style="fill:#e8e8e8;fill-opacity:1;fill-rule:nonzero;stroke:none"
             d="m 0,0 c -0.021,-4.522 -0.363,-2.077 -1.44,-2.88 -0.089,-0.234 0.125,-0.84 -0.006,-0.954 -0.135,-0.118 -0.679,0.061 -0.953,-0.006 -0.05,-0.032 0.237,-0.652 -0.277,-1.012 -0.549,-0.383 -3.431,-0.639 -4.522,-0.908 0.171,2.275 3.643,1.64 4.799,1.92 0.08,0.052 -0.058,0.202 0.959,0.96 C -1.049,-1.853 -1.548,0.374 0,0" /></g><g
           transform="translate(102.515,634.1437)"
           id="g448"><path
             id="path450"
             style="fill:#e8e8e8;fill-opacity:1;fill-rule:nonzero;stroke:none"
             d="M 0,0 C -0.081,0.784 0.048,1.609 0,2.4 2.004,2.315 2.004,0.085 0,0" /></g><g
           transform="translate(112.5922,653.3437)"
           id="g452"><path
             id="path454"
             style="fill:#e8e8e8;fill-opacity:1;fill-rule:nonzero;stroke:none"
             d="M 0,0 3.809,5.644 C 3.631,9.036 3.863,11.675 5.091,14.828 7.994,22.282 22.249,27.816 26.873,20.16 19.57,21.186 12.198,20.7 7.992,13.868 4.282,7.842 7.428,6.965 6.654,3.697 6.466,2.904 3.595,1.57 3.025,-0.859 2.642,-2.489 3.037,-4.137 2.879,-5.76 3.467,-6.453 6.027,-8.587 6.238,-10.08 5.83,-9.978 3.195,-11.234 2.062,-8.515 1.3,-6.687 2.752,-7.07 2.879,-5.76 2.794,-5.659 2.006,-5.878 1.92,-5.764 1.564,-5.293 2.687,-3.387 0.96,-3.84 0.917,-2.893 0.503,-0.658 0,0" /></g><g
           transform="translate(160.5789,679.7437)"
           id="g456"><path
             id="path458"
             style="fill:#e8e8e8;fill-opacity:1;fill-rule:nonzero;stroke:none"
             d="m 0,0 c -2.724,0.842 -1.962,6.304 -0.792,8.471 4.541,8.408 28.039,6.791 28.152,-5.587 0.701,3.871 3.017,1.018 5.753,0.952 C 32.984,1.193 27.244,4.981 28.312,0.96 25.598,1.498 27.425,2.338 25.852,4.382 18.534,13.888 0.785,13.583 0,0" /></g><g
           transform="translate(160.3649,645.4379)"
           id="g460"><path
             id="path462"
             style="fill:#343031;fill-opacity:1;fill-rule:nonzero;stroke:none"
             d="M 0,0 C 3.526,-2.595 1.252,-9.771 -4.234,-9.249 -13.25,-8.392 -8.601,6.331 0,0" /></g><g
           transform="translate(131.4659,626.4014)"
           id="g464"><path
             id="path466"
             style="fill:#343031;fill-opacity:1;fill-rule:nonzero;stroke:none"
             d="m 0,0 c 0,-2.457 -1.992,-4.45 -4.448,-4.45 -2.457,0 -4.449,1.993 -4.449,4.45 0,2.457 1.992,4.45 4.449,4.45 C -1.992,4.45 0,2.457 0,0" /></g><g
           transform="translate(140.283,697.361)"
           id="g468"><path
             id="path470"
             style="fill:#343031;fill-opacity:1;fill-rule:nonzero;stroke:none"
             d="M 0,0 C 3.588,-3.656 -2.771,-8.662 -5.171,-4.933 -7.51,-1.301 -2.874,2.929 0,0" /></g><g
           transform="translate(189.3709,680.7037)"
           id="g472"><path
             id="path474"
             style="fill:#e8e8e8;fill-opacity:1;fill-rule:nonzero;stroke:none"
             d="M 0,0 C -0.437,1.55 5.094,1.094 5.555,1.005 6.609,0.803 6.151,0.066 6.238,0 6.837,-0.073 7.253,0.097 7.994,-0.163 8.965,-0.502 8.933,-1.792 9.117,-2.4 9.54,-2.772 9.633,-1.565 10.077,-3.36 8.603,-3.56 9.322,-3.074 9.117,-2.4 8.54,-1.891 6.753,-0.385 6.238,0 4.274,0.238 1.975,-0.224 0,0" /></g><g
           transform="translate(122.6694,645.6638)"
           id="g476"><path
             id="path478"
             style="fill:#e8e8e8;fill-opacity:1;fill-rule:nonzero;stroke:none"
             d="M 0,0 C 0.123,-0.125 1.983,-0.012 0.978,-2.55 0.738,-3.154 -0.411,-3.244 -0.96,-3.36 Z" /></g><g
           transform="translate(138.505,669.6638)"
           id="g480"><path
             id="path482"
             style="fill:#e8e8e8;fill-opacity:1;fill-rule:nonzero;stroke:none"
             d="M 0,0 C -0.627,0.178 -4.5,-0.865 -3.839,0.96 -2.507,0.897 -0.964,1.31 0,0" /></g><g
           transform="translate(110.6728,646.6237)"
           id="g484"><path
             id="path486"
             style="fill:#e8e8e8;fill-opacity:1;fill-rule:nonzero;stroke:none"
             d="M 0,0 C 0.742,-1.426 -3.909,-1.592 -3.359,0 -2.492,-0.1 -0.859,-0.107 0,0" /></g><g
           transform="translate(132.2668,670.6237)"
           id="g488"><path
             id="path490"
             style="fill:#e8e8e8;fill-opacity:1;fill-rule:nonzero;stroke:none"
             d="M 0,0 C 0.395,-1.655 -1.562,-0.756 -2.879,-0.96 -3.093,0.573 -1.16,-0.041 0,0" /></g><g
           transform="translate(139.4648,669.6638)"
           id="g492"><path
             id="path494"
             style="fill:#e8e8e8;fill-opacity:1;fill-rule:nonzero;stroke:none"
             d="m 0,0 c 1.202,0.319 0.832,-0.821 0.96,-0.96 0.078,-0.085 0.9,-0.927 0.959,-0.96 0.588,-0.328 1.702,-0.347 2.4,-0.48 -1.724,-2.56 -2.246,0.37 -2.4,0.48 C 0.951,-1.222 1.017,-0.997 0.96,-0.96 -0.216,-0.201 0.065,-0.021 0,0" /></g><g
           transform="translate(199.4481,676.3837)"
           id="g496"><path
             id="path498"
             style="fill:#e8e8e8;fill-opacity:1;fill-rule:nonzero;stroke:none"
             d="M 0,0 C 1.895,0.211 0.927,-1.437 0.96,-1.92 -0.623,-2.232 0.208,-1.098 0,0" /></g><g
           transform="translate(163.4581,680.2238)"
           id="g500"><path
             id="path502"
             style="fill:#e8e8e8;fill-opacity:1;fill-rule:nonzero;stroke:none"
             d="M 0,0 C -0.577,-1.223 -1.84,-2.59 -1.919,-0.48 -1.331,-0.457 -0.617,-0.076 0,0" /></g><g
           transform="translate(139.9446,673.5037)"
           id="g504"><path
             id="path506"
             style="fill:#e8e8e8;fill-opacity:1;fill-rule:nonzero;stroke:none"
             d="M 0,0 C 2.33,-0.378 1.325,-0.925 1.44,-0.96 0.307,-0.983 -0.227,-1.281 0,0" /></g><g
           transform="translate(143.7836,671.5837)"
           id="g508"><path
             id="path510"
             style="fill:#e8e8e8;fill-opacity:1;fill-rule:nonzero;stroke:none"
             d="M 0,0 C 0.293,-0.316 0.768,0.815 0.96,-0.96 -0.057,-1.078 -0.118,-1.017 0,0" /></g><g
           transform="translate(142.344,672.5438)"
           id="g512"><path
             id="path514"
             style="fill:#e8e8e8;fill-opacity:1;fill-rule:nonzero;stroke:none"
             d="M 0,0 C 1.653,-0.776 0.673,-0.725 0.96,-0.96 -0.057,-1.078 -0.118,-1.018 0,0" /></g><g
           transform="translate(119.3104,643.2637)"
           id="g516"><path
             id="path518"
             style="fill:#e8e8e8;fill-opacity:1;fill-rule:nonzero;stroke:none"
             d="M 0,0 C 1.017,0.115 2.517,-0.207 2.399,-1.226 -1.94,-1.051 0.196,-0.038 0,0" /></g><g
           transform="translate(198.4884,668.2238)"
           id="g520"><path
             id="path522"
             style="fill:#e8e8e8;fill-opacity:1;fill-rule:nonzero;stroke:none"
             d="M 0,0 C -0.271,-0.195 0.732,-0.664 -0.96,-0.96 -1.078,0.057 -1.017,0.118 0,0" /></g><g
           transform="translate(195.6092,668.2238)"
           id="g524"><path
             id="path526"
             style="fill:#e8e8e8;fill-opacity:1;fill-rule:nonzero;stroke:none"
             d="M 0,0 C 1.017,0.118 1.078,0.057 0.96,-0.96 0.705,-0.875 0.098,-1.073 0.002,-0.958 -0.103,-0.835 0.061,-0.284 0,0" /></g><g
           transform="translate(134.7187,703.9301)"
           id="g528"><path
             id="path530"
             style="fill:#343031;fill-opacity:1;fill-rule:nonzero;stroke:none"
             d="m 0,0 c -10.794,-5.677 -15.235,-15.784 -15.888,-27.546 -0.012,-0.206 -0.229,-1.557 -0.487,-2.763 -0.233,-1.087 -1.015,-1.975 -2.063,-2.345 -1.74,-0.615 -4.384,-1.446 -6.568,-3.052 -10.154,-4.895 -17.854,-21.852 -7.198,-30.72 1.154,-0.5 1.705,-1.674 1.405,-2.593 -0.295,-0.906 -1.301,-1.217 -1.405,-1.247 -1.665,-0.007 -2.181,-1.334 -2.879,-1.92 -1.37,-1.151 -2.174,-2.066 -3.359,-3.36 -0.189,-0.207 -0.217,-0.036 -0.96,-0.96 -3.63,-4.517 -6.152,-8.209 -6.745,-14.613 -0.858,-9.265 5.666,-32.628 17.034,-33.412 3.543,-0.245 6.746,1.589 9.736,0.832 0.609,-0.154 6.133,-7.515 8.287,-9.447 0.306,-0.274 -0.197,-0.37 5.493,-4.193 0.678,-0.456 6.254,-2.891 6.504,-3.007 5.984,-2.777 13.713,-3.591 18.975,-2.9 7.125,0.934 22.623,13.821 22.773,19.7 0.049,1.907 1.701,3.818 3.94,3.328 3.006,-0.657 -1.009,-10.501 -1.013,-13.247 -0.011,-7.653 9.442,-10.036 15.579,-9.786 6.632,0.271 9.144,7.594 11.524,7.698 1.958,0.085 6.187,-2.698 7.614,-2.909 5.779,-0.856 15.459,0.511 16.544,7.515 0.497,3.209 -1.228,14.578 -0.682,15.564 2.598,4.691 5.645,-3.596 6.046,-3.789 2.401,-1.156 6.452,7.408 6.633,9.339 0.824,8.79 -10.366,8.361 -8.042,13.097 1.198,2.441 14.361,2.649 17.412,12.575 3.425,11.144 -0.81,18.695 -11.191,22.356 -2.02,0.713 -8.534,1.102 -9.022,2.711 -1.672,5.523 7.592,2.16 8.309,5.605 0.27,1.302 -3.193,6.861 -3.77,7.117 -3.549,1.577 -9.766,-4.413 -10.931,-0.981 -0.996,2.936 6.397,12.605 6.254,18.594 -0.272,11.403 -16.82,20.098 -27.021,18.382 -3.034,-0.51 -12.262,-6.719 -13.463,-6.148 -0.822,0.392 -2.089,7.826 -4.048,9.119 -5.254,3.468 -8.249,-0.022 -13.187,1.009 -0.278,0.058 -3.487,2.996 -4.203,3.811 C 27.845,6.624 8.641,4.545 0,0 m 100.719,-132.426 c -0.863,-5.767 -10.154,-10.334 -15.57,-10.33 -2.763,0.001 -10.734,2.68 -11.897,2.377 -0.332,-0.086 -3.633,-3.842 -5.1,-4.593 -6.68,-3.423 -17.275,-2.398 -22.969,2.562 -3.844,3.349 -3.285,9.447 -3.733,9.747 -0.371,0.248 -4.831,-5.806 -5.898,-6.692 -17.035,-14.137 -38.197,-8.278 -52.536,6.204 -0.894,0.903 -3.121,5.142 -4.173,5.522 -1.478,0.533 -6.586,-1.038 -9.395,-0.754 -5.211,0.527 -11.77,8.488 -13.944,12.924 -6.209,12.673 -7.981,26.226 -0.494,38.78 1.206,2.024 8.287,8.039 8.399,8.631 0.095,0.506 -4.353,7.781 -4.705,9.174 -2.136,12.663 9.682,26.005 20.85,30.367 0.92,8.536 3.081,16.745 8.428,23.619 10.378,13.344 34.741,16.881 48.742,7.411 0.901,-0.608 4.264,-4.882 4.814,-5.016 2.138,-0.521 6.211,0.808 9.044,0.396 6.836,-0.994 8.688,-9.058 9.369,-9.114 0.253,-0.021 3.406,2.486 4.245,2.786 18.271,6.524 41.845,-6.131 36.38,-27.378 -0.244,-0.948 -3.281,-6.175 -2.738,-6.621 0.599,-0.492 6.549,1.136 9.866,-4.075 2.575,-4.043 3.558,-8.008 0.21,-11.765 4.426,-0.6 9.609,-4.026 12.161,-7.797 4.356,-6.433 3.883,-17.751 -0.33,-24.194 -2.723,-4.165 -12.556,-7.371 -12.784,-8.1 -0.154,-0.49 5.023,-3.777 5.635,-7.312 0.798,-4.607 -3.119,-16.255 -7.919,-17.849 -0.714,-0.237 -3.958,0.168 -3.958,-0.03 0,-2.601 0.357,-6.494 0,-8.88" /></g><g
           transform="translate(117.3909,591.4238)"
           id="g532"><path
             id="path534"
             style="fill:#343031;fill-opacity:1;fill-rule:nonzero;stroke:none"
             d="m 0,0 c 5.542,4.411 2.041,-13.336 8.996,-14.745 6.397,-1.295 16.312,9.106 18.358,7.066 2.529,-2.522 -14.033,-10.962 -4.339,-12.724 6.746,-1.227 7.581,5.603 8.474,5.534 3.202,-0.249 2.467,-3.317 1.331,-5.241 -2.611,-4.426 -9.376,-6.043 -13.625,-2.93 -2.37,1.737 -2.655,5.518 -2.883,5.761 -0.176,0.187 -3.958,-1.003 -5.039,-0.992 C 1.323,-18.174 -0.412,-8.27 0,0" /></g><g
           transform="translate(161.8475,679.0278)"
           id="g536"><path
             id="path538"
             style="fill:#343031;fill-opacity:1;fill-rule:nonzero;stroke:none"
             d="m 0,0 c -0.804,0.358 -1.257,1.244 -1.122,2.113 1.886,12.195 18.647,12.153 25.705,2.985 1.573,-2.044 -0.254,-2.884 2.46,-3.422 0.152,-0.03 0.323,0.018 0.48,0 1.821,-0.206 3.918,0.17 5.774,0.043 0.287,-0.019 0.559,-0.115 0.813,-0.25 0.776,-0.412 1.668,-0.928 2.731,-2.119 0.613,-0.574 1.781,-2.613 1.719,-3.914 0.056,-0.826 0.106,-2.097 0,-2.88 0.044,-2.539 -1.155,-3.636 -2.216,-4.169 -0.814,-0.41 -1.806,-0.308 -2.431,0.356 -0.56,0.595 -0.926,1.536 -0.151,2.853 0.592,1.317 0.577,1.088 0.484,2.178 0.07,0.42 -0.248,1.722 -0.403,2.318 -0.052,0.2 -0.133,0.396 -0.243,0.571 -4.136,6.618 -7.299,-5.621 -8.69,-5.051 -2.553,1.045 -0.836,4.825 -1.264,6.91 C 21.787,7.575 11.705,10.772 4.134,5.665 1.815,4.1 2.378,2.821 1.611,1.196 1.148,0.407 0.836,-0.048 0.247,-0.072 0.19,-0.074 0.104,-0.046 0,0" /></g><g
           transform="translate(139.4648,673.5038)"
           id="g540"><path
             id="path542"
             style="fill:#343031;fill-opacity:1;fill-rule:nonzero;stroke:none"
             d="M 0,0 C 0.157,-0.022 4.777,-1.006 5.279,-2.88 5.331,-3.369 5.311,-3.813 5.227,-4.233 4.972,-5.506 3.708,-6.273 2.449,-5.956 c -0.2,0.05 -0.381,0.113 -0.53,0.196 -0.059,0.033 -1.888,1.843 -2.159,1.92 -0.964,1.31 -3.227,0.897 -4.559,0.96 -0.787,0.037 -1.611,0.028 -2.399,0 -1.16,-0.041 -5.817,-2.118 -7.323,-3.875 -8.037,-9.375 2.998,-8.942 2.515,-12.119 -0.427,-2.811 -7.724,1.022 -8.553,-3.568 -0.552,-3.054 2.384,-3.985 3.764,-5.398 0.063,-0.064 0.75,-0.792 0.554,-1.795 -0.118,-0.602 -0.516,-1.112 -1.064,-1.395 -0.239,-0.123 -0.514,-0.155 -0.775,-0.09 -0.379,0.096 -0.779,0.207 -1.188,0.359 -0.658,0.244 -1.292,0.502 -1.366,0.521 -2.399,1.875 -2.772,3.627 -3.359,4.32 0.158,1.623 -0.238,3.271 0.145,4.901 0.57,2.429 3.442,3.763 3.63,4.556 0.773,3.268 -2.373,4.145 1.337,10.171 C -14.674,0.54 -7.303,1.026 0,0" /></g><g
           transform="translate(109.7135,634.6245)"
           id="g544"><path
             id="path546"
             style="fill:#343031;fill-opacity:1;fill-rule:nonzero;stroke:none"
             d="m 0,0 c 1.917,-1.931 -4.584,-5.78 -5.133,-8.542 -0.655,-3.29 -0.287,-7.803 2.7,-9.972 1.508,-1.095 4.166,-0.835 5.247,-3.015 3.675,-7.411 -4.059,-1.304 -4.494,-1.505 -1.717,-0.794 0.474,-7.603 1.818,-8.503 1.74,-1.163 6.72,0.243 3.701,-3.504 -6.097,-2.28 -9.788,4.7 -10.102,9.811 -0.129,2.112 1.149,4.01 0.965,4.71 -0.113,0.43 -1.536,1.048 -1.833,1.74 -2.436,5.68 -3.269,10.651 0.892,15.899 C -5.695,-1.909 -1.334,1.345 0,0" /></g><g
           transform="translate(112.9254,652.0688)"
           id="g548"><path
             id="path550"
             style="fill:#343031;fill-opacity:1;fill-rule:nonzero;stroke:none"
             d="M 0,0 C 3.728,-5.956 -8.718,-9.669 -7.46,-0.405 -7.017,2.854 -1.939,3.097 0,0" /></g></g></g></g></svg>